<svg width="100" height="100" viewBox="0 0 100 100" fill="none" xmlns="http://www.w3.org/2000/svg">
<path d="M72.9167 27.083H72.9583M29.1667 8.33301H70.8333C82.3393 8.33301 91.6667 17.6604 91.6667 29.1663V70.833C91.6667 82.3389 82.3393 91.6663 70.8333 91.6663H29.1667C17.6607 91.6663 8.33333 82.3389 8.33333 70.833V29.1663C8.33333 17.6604 17.6607 8.33301 29.1667 8.33301ZM66.6667 47.3747C67.1809 50.8424 66.5886 54.3839 64.974 57.4956C63.3594 60.6072 60.8048 63.1306 57.6734 64.7066C54.5421 66.2827 50.9935 66.8313 47.5324 66.2744C44.0713 65.7175 40.874 64.0834 38.3952 61.6045C35.9163 59.1257 34.2822 55.9283 33.7253 52.4672C33.1683 49.0061 33.7169 45.4576 35.293 42.3262C36.8691 39.1949 39.3924 36.6403 42.5041 35.0257C45.6158 33.4111 49.1573 32.8188 52.625 33.333C56.1622 33.8575 59.4369 35.5058 61.9654 38.0343C64.4939 40.5628 66.1421 43.8375 66.6667 47.3747Z" stroke="#012FA8" stroke-width="4" stroke-linecap="round" stroke-linejoin="round"/>
</svg>
