<svg width="1602" height="225" viewBox="0 0 1602 225" fill="none" xmlns="http://www.w3.org/2000/svg">
<path d="M103.836 8.39125C109.384 17.7114 107.822 33.8143 106.543 35.018C105.576 35.9289 103.673 34.9692 101.264 32.8709C88.236 9.51357 63.3855 5.04054 50.3728 16.4752C40.5724 25.0797 37.2412 42.9231 41.6283 55.8867C43.7996 62.3116 58.4184 79.8784 79.8782 92.6144C94.8837 101.512 102.662 110.572 108.566 118.997C111.198 122.771 115.183 129.293 117.593 138.483C118.53 142.078 120.924 152.504 118.708 165.598C118.277 168.168 116.477 177.895 110.781 187.361C97.278 209.775 72.5167 213.175 68.0998 213.777C63.7573 214.378 34.1925 218.429 15.2014 195.201C3.40819 180.774 -5.18762 155.416 3.61639 140.712C5.9215 136.857 8.95531 134.514 11.305 133.099C13.625 132.709 17.328 132.319 18.027 133.994C18.2501 134.515 18.1014 135.068 18.027 135.279C16.1086 142.908 11.0671 149.154 10.3532 160.328C10.3681 161.434 10.4425 162.996 10.6804 164.834C13.2681 184.694 31.3223 203.285 50.3134 207.335C78.2126 213.272 108.209 187.833 110.945 161.694C112.388 147.885 106.588 136.141 100.758 127.927C83.9084 104.228 43.5319 103.691 32.3335 62.2954C31.0694 57.5946 29.9689 45.6882 34.5197 32.2366C35.3822 29.6666 39.814 17.1421 50.001 8.78162C64.2481 -2.92959 85.2766 -2.79947 103.836 8.40751V8.39125Z" fill="#012FA8"/>
<path d="M436.917 8.45567C432.217 6.16223 429.823 5.0887 427.25 6.25982C423.978 7.75626 421.51 12.2781 422.417 15.0432C423.413 18.0686 436.917 19.4349 435.95 34.7896C442.717 73.1764 436.857 165.451 434.017 189.459C434.017 191.655 431.92 196.974 428.217 198.242C426.284 199.332 423.384 201.528 422.417 203.724C421.599 207.888 424.35 211.971 425.317 211.401C425.317 211.401 522.548 228.692 557.719 171.908C578.941 137.637 587.358 81.114 557.719 40.2711C534.698 8.55327 495.124 -0.555452 453.335 7.36588C442.761 10.7166 437.571 13.189 437.764 14.7992C437.839 15.336 438.508 15.7914 439.802 16.133C442.702 22.7206 482.364 2.37235 517.12 27.096C539.873 43.2803 558.775 74.3313 558.686 110.457C558.656 120.249 557.213 142.468 544.186 163.109C524.704 193.948 487.644 208.083 449.468 200.406C447.163 77.503 447.788 34.3342 449.468 27.0798C449.662 26.2502 450.539 22.9808 449.468 19.4024C447.758 13.7257 442.256 11.0419 436.902 8.43941L436.917 8.45567Z" fill="#012FA8"/>
<path d="M587.686 7.23708C587.79 7.69251 587.909 8.19675 588.087 8.71724C588.474 9.90463 588.98 10.8643 589.441 11.6288C592.281 13.1089 595.984 15.6301 598.944 19.9568C598.944 19.9568 599.91 21.0953 600.461 22.4779C604.268 31.977 602.186 47.9823 602.186 95.982C602.186 122.755 601.992 153.204 601.576 187.525C600.252 197.186 597.382 200.716 594.839 202.066C593.515 202.766 590.809 203.66 589.441 206.425C588.757 207.824 588.638 209.239 588.652 210.231C588.98 211.126 589.084 213.387 590.586 213.566C595.746 214.168 622.604 213.745 622.485 213.566C624.017 212.297 625.891 210.296 625.846 207.873C625.802 204.782 622.679 202.944 620.448 200.602C616.373 196.308 615.719 190.745 614.737 182.499C613.012 172.105 609.473 33.3433 611.005 30.5294C611.599 27.7805 615.273 18.1025 620.448 14.5403C622.56 13.0927 624.151 11.2872 625.846 10.1811C626.055 9.15642 625.846 8.73351 625.519 6.70032C623.14 4.37434 616.79 5.82197 608.313 5.82197C604.268 5.82197 588.087 2.91044 587.686 7.25335V7.23708Z" fill="#012FA8"/>
<path d="M270.012 16.0203C270.22 17.9885 270.458 22.1525 269.045 26.9345C268.183 29.8786 267.603 31.8142 266.145 32.3835C264.391 33.0667 262.918 31.1636 259.379 29.1141C256.449 27.4062 254.189 26.5767 250.679 25.8448C246.47 24.9664 243.184 24.8363 238.112 24.755C234.186 24.6899 229.279 24.6736 223.612 24.755C219.746 24.755 210.377 25.796 209.113 25.8448C205.187 26.0237 204.279 77.1464 204.279 77.1464C203.744 107.319 203.997 131.75 204.279 141.542C204.458 147.511 202.926 181.344 205.246 186.288C205.722 188.354 206.584 191.07 208.146 193.933C208.741 195.023 209.261 195.804 209.722 196.406C211.016 198.097 211.403 198.52 211.998 199.398C213.098 201.009 214.258 203.286 213.931 204.847C213.217 208.312 209.44 211.614 208.131 212.492C204.488 214.932 185.898 213.582 181.927 212.817C181.065 212.492 178.18 210.931 177.198 210.296C176.752 210.036 175.845 209.369 175.532 208.198C175.19 206.913 175.77 205.693 176.231 204.831C178.016 201.497 181.08 198.732 182.998 197.186C182.998 197.186 184.768 195.511 188.798 188.452C194.598 168.803 193.631 108.783 193.631 108.783C193.631 108.783 193.631 48.7629 190.731 25.8285C190.731 25.8285 175.666 24.9339 170.431 24.7387C160.943 24.3808 156.199 24.7387 151.098 25.8285C138.443 28.5448 132.806 34.4167 129.832 31.2775C127.051 28.3496 127.809 18.8831 127.899 18.1837C127.943 17.8421 128.003 17.4842 128.003 17.4842C128.151 16.5734 129.534 7.88756 129.832 7.26946C131.765 3.38199 140.45 4.91096 141.432 5.08988C150.771 6.70017 176.603 7.70864 216.816 8.35926C229.174 7.85503 241.518 7.3508 253.876 6.84656C259.78 4.48805 265.461 4.87843 268.034 8.35926C269.358 10.1485 269.581 12.3769 269.967 16.0041L270.012 16.0203Z" fill="#012FA8"/>
<path d="M297.733 7.93628C297.302 9.1562 296.529 11.4822 295.8 14.475C293.837 22.5916 293.852 29.2279 293.867 31.9117C293.971 46.5345 295.22 110.1 294.744 119.762C294.685 121.096 294.387 126.691 294.536 134.336C294.595 136.89 294.699 139.72 294.908 142.81C295.77 155.66 297.748 165.875 299.131 171.975C300.589 175.764 303.042 181.083 307.028 186.418C308.946 188.988 313.215 194.6 320.189 198.634C328.904 203.692 336.712 203.302 340.37 203.074C344.177 202.83 354.35 202.017 364.061 193.071C366.083 191.2 369.593 187.59 372.835 181.962C377.921 173.129 379.646 164.053 380.732 155.302C381.119 146.991 381.639 85.5231 382.487 65.3212C383.32 59.4006 384.39 36.1245 384.242 31.9931C384.465 30.334 384.732 26.8043 383.364 23.1121C380.524 15.4022 372.151 15.5648 371.08 12.0027C371.169 11.043 371.422 10.2785 371.69 9.70923C373.177 6.6025 377.192 5.17113 381.803 5.75669C389.848 5.36632 394.741 5.2362 396.511 5.33379C399.366 5.77296 400.437 6.43985 400.898 7.56217C401.701 9.49778 400.199 11.7099 399.143 16.4432C398.444 19.5662 398.28 22.2988 398.266 24.2181C397.968 27.1785 397.686 30.1388 397.388 33.0991C397.388 35.604 397.373 39.4752 397.388 44.2085C397.418 52.7317 397.507 56.9445 397.567 61.8892C397.73 77.6831 397.254 80.3831 397.254 108.311V112.247C397.254 135.133 396.645 151.317 395.44 160.784C394.161 170.771 391.321 179.994 386.919 188.452C378.055 205.384 362.187 213.858 339.344 213.858C309.675 213.858 292.722 194.307 288.468 155.189C287.397 145.413 286.877 130.888 286.877 111.629C286.877 69.8756 286.728 77.0975 286.342 66.7201C284.929 28.5936 280.794 11.5472 288.052 6.83022C290.015 5.56151 297.718 5.74043 297.718 7.92002L297.733 7.93628Z" fill="#012FA8"/>
<path d="M767.454 100.211V110.035C767.454 123.324 765.892 136.727 762.769 150.211C756.865 175.764 745.979 193.331 730.081 202.928C721.545 208.149 712.875 210.768 704.056 210.768H701.765C683.801 210.768 669.122 201.513 657.731 182.986C653.016 175.195 649.194 165.127 646.279 152.781C643.439 140.436 642.011 127.748 642.011 114.736V108.181C642.011 104.505 642.115 100.829 642.324 97.1691C643.186 81.8144 645.625 70.2983 646.383 66.8663C650.681 47.5265 656.853 35.4087 659.545 30.5127C667.025 16.8822 671.115 15.9063 673.197 16.1502C674.833 16.3454 676.915 17.4515 677.079 18.8829C677.376 21.4366 671.442 24.1529 670.342 24.6897C655.738 31.9929 651.455 75.5684 651.455 75.5684C648.763 101.74 645.744 149.837 664.438 175.894C667.174 179.717 683.34 197.772 702.643 195.494C727.493 192.583 740.506 161.142 742.514 156.278C748.745 141.249 749.295 127.895 749.994 111.613C750.946 89.02 752.136 64.5078 740.03 42.9884C736.58 36.8563 725.159 17.3376 705.141 14.6701C695.326 13.3688 687.176 16.6219 682.536 19.0293C681.168 19.7775 679.25 21.1275 678.581 23.3884C677.406 27.341 680.901 31.1146 679.934 32.1068C679.042 33.0176 674.773 31.2447 673.197 27.7476C671.175 23.2583 674.015 16.8985 677.242 13.2062C677.242 13.2062 683.354 6.21198 704.056 4.86194C704.859 4.81314 705.662 4.79688 705.662 4.79688C706.688 4.79688 707.714 4.86194 708.74 4.86194C715.894 4.86194 723.344 7.13912 731.122 11.6935C746.737 20.7209 757.46 37.9624 763.289 63.4017C766.07 75.3732 767.454 87.6212 767.454 100.162V100.211Z" fill="#012FA8"/>
<path d="M919.307 149L919.822 149.946L919.049 148.685L919.307 149ZM920.348 132.917L920.606 133.863V138.593L920.348 132.917ZM1057.42 128.817L1056.64 130.394L1055.87 131.656V135.124L1054.06 136.386L1053.54 139.539L1050.95 143.639L1050.18 146.793L1049.66 147.108L1049.92 146.793L1049.66 145.531L1050.7 144.27V143.324L1051.48 142.378L1051.99 141.116L1052.25 140.17L1051.99 138.593L1053.29 137.647L1053.04 136.701L1054.33 135.124L1054.85 134.178L1054.59 132.917V132.602L1054.08 132.917V134.178L1053.56 135.44L1053.3 136.386L1052.26 137.332L1051.49 138.593L1050.45 140.485L1050.7 141.432L1050.19 143.008L1049.15 143.954L1049.66 145.216L1048.36 145.846L1047.59 147.423V148.054L1047.08 149.631L1046.82 150.261L1046.04 151.838L1045.27 152.784V154.676L1043.97 155.622V156.884L1043.46 158.145L1042.68 159.407L1042.42 160.353L1042.94 159.407L1044.5 158.776L1045.54 156.253L1045.28 154.992L1045.8 154.361L1046.05 153.1L1047.1 152.469L1046.84 154.992L1045.02 158.776V159.722L1043.47 160.353L1043.21 163.822L1040.62 164.452V165.398L1039.06 166.975L1040.62 169.813L1039.85 172.651L1038.03 173.598L1036.99 178.643L1036.48 178.959L1035.96 180.535L1036.22 181.481L1035.44 182.427L1034.67 184.004L1031.82 183.373L1031.57 185.896L1030.53 186.212L1028.2 187.473L1027.15 189.05L1026.9 191.257L1026.38 193.149L1025.61 193.78L1025.87 195.672L1024.82 196.618L1025.08 197.88L1021.97 200.718L1019.38 202.295L1018.86 203.241L1017.82 203.871H1017.05L1017.31 204.502H1017.82L1016.78 205.448L1016.27 206.394L1014.71 206.71L1013.94 207.656L1013.16 207.971L1012.39 209.548L1011.35 209.863L1009.28 209.232L1010.05 210.809L1008.49 211.125L1007.98 211.44L1008.23 212.701L1006.42 213.017L1004.86 213.332V214.278H1003.05L1002.53 215.224L1000.2 216.17L996.573 216.801L993.727 218.062L982.839 219.008H979.993L978.178 218.378L971.961 219.639L969.631 219.008H965.744L965.486 217.432L963.156 217.116L957.196 215.855L955.124 214.278H954.35L953.051 212.701L952.01 212.071L948.638 210.178V211.755L946.566 209.863L943.978 207.34L944.751 206.71L943.452 207.34L941.122 204.502L941.638 203.241L940.864 203.871L940.091 202.61H938.534L937.493 199.772L935.936 198.51V196.618L936.709 197.249L936.194 196.618L935.678 195.042L934.905 194.411L934.647 193.465L934.131 191.888L933.09 190.942L932.317 189.996L931.801 188.734L929.986 187.788L929.728 186.212L928.955 185.896L929.471 186.527L929.728 187.473L930.502 189.05L932.317 191.257L933.09 192.519L934.131 193.465V194.411L933.358 193.78L932.059 193.149L931.801 191.573L931.027 190.627L929.986 189.05L928.945 186.212V185.581H928.687V184.32L927.388 183.373L927.13 183.058L926.615 181.797L924.8 179.274L926.099 183.373L924.284 181.481L923.243 174.544L924.542 172.651L922.985 168.552V165.083L921.429 163.822L922.47 161.929L923.243 158.776L922.47 157.515L921.696 156.568L922.212 155.622L921.439 154.676L921.696 147.423L921.439 145.216L921.696 143.639L922.47 141.747V139.224L922.212 129.448L923.253 128.817L922.738 126.61L923.253 122.826L923.511 118.726L924.284 117.78L924.542 116.519L924.284 112.419L925.326 111.788V110.527L924.552 109.896L925.068 109.266L924.81 106.427L924.037 105.797L921.964 106.427L923.005 101.382L924.82 101.066L925.336 102.328H926.892L927.15 97.2821L927.924 96.336L927.666 93.4979L929.481 92.2365L929.223 90.029L929.738 89.3983L929.996 88.1369L930.77 87.1908L931.027 78.3609L933.358 78.9916L932.842 76.1535L934.141 75.2074V73.6306L934.915 72.3692L935.172 70.7925V69.8464L934.399 68.9003L935.172 67.9543L934.915 66.0622L936.214 66.6929V64.17L936.987 61.9626L938.544 63.224L938.286 58.809L939.585 58.1783L941.658 53.7634L939.585 54.3941L941.658 50.9252L943.73 46.5103L945.029 44.3028L945.545 43.0414L947.617 41.4646L948.658 40.5186L949.957 39.2572L950.731 38.9418L951.246 37.365L952.288 36.419L952.545 35.7883L953.587 33.8962L954.628 33.2655L954.37 31.3733L955.927 29.4812L957.484 28.5352L957.999 27.9045L959.298 25.697L961.629 23.4895L963.959 22.5435L965 19.7053L967.33 18.1285L969.918 14.3443L971.733 13.0829L974.321 10.8754L975.878 9.61399L977.95 8.35257L979.249 8.03722L980.023 7.09116L980.796 5.82975L982.353 5.5144L982.611 4.56834H984.683L988.313 3.62228L988.828 2.04551L994.53 1.41481L994.788 0.46875L996.345 1.73016L1000.49 2.67622V3.30693L1001.79 3.62228L1004.63 3.93763L1005.93 5.5144L1007.75 6.1451L1010.08 8.03722L1012.92 8.66793L1015 9.92934L1016.04 10.8754L1019.41 11.8215L1028.74 17.8132L1030.56 19.7053L1031.6 21.282L1034.44 22.5435L1034.96 24.1202L1036.51 25.0663L1036 26.0123L1037.56 32.004L1038.33 33.8962L1039.89 35.1576L1039.11 35.7883L1038.6 39.5725L1039.64 47.141H1039.12L1038.61 48.4024L1039.65 51.5559L1038.87 52.8173L1038.62 55.3402L1038.1 58.1783L1037.33 58.4937L1037.59 60.7012L1036.54 61.0165V63.224L1035.5 64.17V66.0622H1034.2L1033.95 67.3236L1032.91 69.8464L1031.35 72.9999L1030.05 74.5767L1027.98 75.8381L1024.09 76.1535L1018.9 75.2074L1017.6 73.946L1016.56 72.6846L1016.05 70.4771L1015.27 68.585L1015.02 66.0622V62.5933L1015.27 60.7012H1016.05L1015.79 59.1244L1016.31 58.809L1016.05 55.9709L1016.56 55.3402L1016.82 53.7634L1016.05 52.502L1016.82 51.2406L1017.08 50.2945L1017.85 49.0331L1018.11 47.4563L1016.55 46.8256L1018.11 46.1949L1016.81 43.6721L1016.04 43.3568L1017.59 42.4107L1016.82 36.7343L1016.05 35.4729L1015.01 35.1576L1016.56 34.8422L1016.31 32.9501L1014.75 31.3733L1012.16 23.8049L1011.65 25.0663L1010.6 21.9128L1009.56 20.6513L1008.01 17.8132H1007.23L1006.46 16.2364L1005.42 15.6057L1002.3 14.975L1002.05 14.3443H1000.49L998.417 14.6596L995.571 16.2364L995.829 18.4439H994.272L992.716 19.7053H991.417L990.643 21.282L989.87 21.5974L989.354 23.1742L986.766 24.1202L984.178 25.697L982.363 27.2738L982.105 28.5352V28.8505L981.59 29.7966L980.291 32.004L979.249 32.3194L978.992 33.2655L977.95 34.2115L977.177 34.5269L976.404 35.4729V35.7883L975.63 36.7343H975.114L973.558 41.1493L973.3 41.78L972.001 42.0953H971.227L971.485 43.6721H969.155L968.639 45.8796L967.082 48.087L966.825 48.7178L965.268 49.6638L965.01 51.2406L963.969 53.7634H962.412L962.67 54.7095L961.629 55.9709L961.371 56.9169L959.298 62.2779V63.5393H957.999L955.669 68.585L954.628 70.4771L953.854 70.7925L954.37 74.2613H953.854L952.297 76.1535V77.0995L951.524 78.3609L950.751 79.307L951.008 79.9377L950.235 81.1991L949.719 83.4066L948.678 84.3526L948.42 87.5062L948.678 90.029L947.121 90.6597L946.348 98.5435L945.307 102.958L945.049 105.166L943.492 105.797L943.75 107.373L943.492 109.266L941.677 112.419V115.888H940.904L940.646 117.465L941.687 121.564L941.429 123.141V124.402L940.914 124.718L941.172 126.295H940.656L941.429 128.817L941.945 131.025L940.904 133.548L940.646 138.593L941.945 134.809L942.203 133.548L942.719 132.917L942.203 129.448L942.976 128.502L944.018 127.556L944.275 130.71L944.791 136.701L944.533 137.017L945.574 138.593L944.533 137.332L941.687 139.855L941.429 143.954L940.388 142.378L939.615 144.585L940.656 147.423L940.914 148.369L940.398 149.315L942.471 150.892L941.955 156.884L943.512 158.145L944.285 162.56L946.1 171.075L945.584 178.643L947.657 180.22L949.471 181.481V183.689L950.245 185.581L952.575 188.734L952.833 190.942L953.874 191.257L954.648 191.573L955.421 192.519L956.72 193.465L958.019 196.303L959.834 198.51L961.391 198.826L962.69 201.033L966.835 202.925L970.206 204.817L973.052 205.133L974.351 205.448V206.079L977.722 205.448H985.754L986.796 204.502L991.724 202.925L992.24 201.664L993.796 200.403H996.642L996.9 199.141L998.457 198.51L1001.05 196.934L1003.12 195.357L1003.63 194.726L1004.93 193.78L1005.71 191.888L1007.26 190.627L1008.3 189.05L1010.12 187.788L1011.93 185.581L1013.75 184.004L1015.3 181.797L1019.45 176.436L1019.71 174.544L1021.52 173.598L1022.3 172.651L1023.59 170.759L1026.71 166.975L1027.22 165.083L1027.74 163.822L1029.81 161.929L1035 154.361L1036.55 150.577L1039.67 147.739L1041.48 145.531L1043.04 143.008L1043.3 141.116L1045.11 140.17L1045.89 139.224L1046.4 137.647L1046.92 135.755L1048.73 134.494L1049.25 132.286L1050.29 130.079L1051.59 128.502L1053.66 126.925L1055.99 126.295L1057.55 128.817H1057.42ZM928.638 184.95V185.266L927.597 184.32V183.689L927.854 184.32L928.628 184.95H928.638ZM934.597 63.224L933.298 61.9626L933.814 62.2779L934.587 63.224H934.597ZM934.082 194.411L934.597 195.042L934.082 194.726V194.411ZM935.371 195.357L935.629 195.988L934.587 195.042L935.361 195.357H935.371ZM935.886 196.303V196.618L935.629 195.988L935.886 196.303ZM963.096 215.855H962.58L960.766 215.224L959.725 214.278L958.683 213.963L956.869 213.017L955.828 212.701L953.24 211.125L951.941 209.548L950.642 208.917L949.868 208.286L947.538 207.656L947.022 206.71L945.465 205.764L944.692 204.817V204.187L942.877 202.925L941.836 202.295L940.021 200.087L938.98 199.141L937.681 197.88L937.939 198.826L938.98 199.772L940.279 200.718L940.537 201.979L941.053 202.925L943.125 203.556V204.502L944.166 205.448L945.723 206.71L947.022 207.34L947.796 208.286L949.095 209.232L949.352 209.548L950.651 210.494L952.208 211.125L952.982 212.071L954.281 212.386L955.322 213.332L957.137 213.963L957.652 214.278L959.725 215.224H959.982L962.313 216.17L962.571 216.486L963.086 215.855H963.096ZM938.227 202.925L938.742 203.871L937.969 202.61L938.227 202.925ZM941.33 166.975L942.104 171.39L943.145 173.282V166.344L941.588 162.876L941.33 166.975ZM944.96 124.718L945.733 126.295H945.217V126.925L943.918 126.295L944.96 125.979V124.718ZM947.032 119.988H944.96L945.217 118.726L947.032 119.988ZM1014.93 10.8754L1015.19 11.1908L1016.48 11.5061L1018.81 13.3982L1021.4 14.6596L1022.96 15.2903L1024 16.2364L1024.52 16.8671L1026.59 18.1285L1026.07 17.1825L1024.52 16.2364L1024 15.2903L1022.96 14.975L1021.4 14.3443L1020.36 13.3982L1019.32 12.7675L1016.99 11.8215L1015.43 10.8754H1014.92H1014.93ZM1027.1 18.4439L1027.88 19.3899L1029.95 21.282V22.2281L1031.51 22.8588L1032.28 24.4356V25.3816L1033.05 26.643L1033.57 27.9045L1034.87 28.8505L1035.38 30.1119L1035.13 31.058L1035.9 32.3194V33.8962L1035.64 35.1576L1036.16 36.7343L1037.46 37.9958L1037.2 38.9418V40.5186L1037.46 41.78L1036.94 42.726L1037.71 44.6182V45.8796H1038.76L1037.98 44.3028L1038.76 43.0414L1038.24 40.5186L1037.98 39.5725L1038.24 37.9958L1037.72 37.0497L1037.98 35.4729L1037.47 34.5269L1036.69 33.2655L1037.21 32.004L1036.69 30.4273L1036.18 29.4812L1035.66 27.9045L1034.89 26.9584L1034.12 25.697L1033.6 24.7509L1032.3 23.8049L1028.41 19.0746L1027.11 18.4439H1027.1ZM1047.06 152.154L1047.31 151.523L1047.57 152.154L1047.06 152.469V152.154ZM1047.31 151.207L1048.09 150.261L1047.31 151.523V151.207ZM1048.1 150.261L1048.35 149.631V149.946L1048.1 150.261ZM1048.35 149L1048.87 148.054L1048.61 149.315L1048.35 149.631V149ZM1049.13 147.423L1049.64 147.108L1048.87 148.054L1049.13 147.423ZM1056.13 129.763L1055.61 129.448L1055.36 130.71V131.025L1055.61 130.71L1056.13 129.763Z" fill="#0C7BD6"/>
<path d="M1121.04 162.56L1121.81 161.614L1121.04 166.344L1120.27 167.606V168.552L1119.49 169.183V171.075H1118.45L1118.19 172.021L1117.42 173.913L1117.16 172.967L1116.9 173.913L1116.13 174.859L1115.87 175.805L1115.36 177.382L1115.1 178.328L1114.84 178.958L1114.58 180.22L1113.81 181.481L1113.55 182.427L1112.78 183.058L1112.52 184.635L1112.26 185.581L1110.97 185.896L1111.22 187.788L1110.71 188.734L1109.93 189.68L1109.68 190.942L1111.75 187.158L1112.52 186.212L1112.78 184.95L1113.55 184.004L1114.07 183.058V181.797L1115.37 180.22L1115.88 178.958L1115.63 177.382L1116.4 176.12L1116.66 174.859L1117.17 174.228V176.12L1116.66 179.589V180.22L1114.84 181.797L1114.58 183.058L1114.07 184.004L1113.3 185.581V186.842H1112.52V188.104L1110.45 191.573L1110.19 191.888L1109.42 193.78L1108.64 195.357L1106.31 198.195L1105.54 198.826V199.772L1104.77 201.033L1103.99 201.349V202.61L1102.95 202.295L1102.18 205.133L1101.66 205.448L1100.89 205.133L1100.63 206.079L1100.12 207.025L1099.6 207.34L1098.83 208.286L1098.31 209.232L1097.8 209.548L1097.28 210.809L1096.51 211.124H1094.95L1094.18 212.701H1093.14L1092.62 213.647L1092.1 213.963V213.647L1091.59 213.963L1091.33 214.593L1090.29 214.278L1089.77 214.909H1088.48L1088.73 215.224L1087.96 216.17H1086.66L1085.89 215.224H1079.67L1078.9 214.593L1078.38 215.224L1077.61 213.963L1075.79 213.647H1074.49L1073.45 213.017L1072.68 212.386L1071.64 212.071L1071.9 211.124L1071.64 210.809L1069.82 210.494L1068.52 208.917L1067.23 208.286L1066.45 206.079L1067.49 206.71L1068.53 207.656L1070.86 209.548L1072.16 211.124L1073.46 211.44L1075.02 211.755L1074.5 211.124L1073.2 210.178L1072.69 209.863L1071.92 208.917L1069.33 208.286L1068.55 207.34L1067.78 206.71L1067.26 205.133V204.187L1066.49 202.61L1065.72 201.979L1065.2 200.402L1064.43 199.141L1062.87 198.195L1063.13 196.934L1062.87 197.564V198.826L1063.91 200.402L1064.17 201.349L1065.47 202.61L1064.95 203.871L1064.18 202.61L1063.41 200.718L1062.63 199.456L1062.38 195.988L1061.86 195.041L1062.38 195.357L1062.12 191.888L1061.34 186.527L1061.6 183.689V180.851L1062.38 175.174V174.228L1063.15 173.597L1062.89 172.336L1062.63 166.66L1062.38 161.614L1062.63 160.353L1063.68 156.253H1063.93L1064.19 154.676H1064.71V153.415L1065.22 152.784L1064.96 151.523L1064.45 149.946L1064.19 147.739H1064.71L1064.45 146.477L1065.49 145.846V144.27L1066.01 142.693L1066.78 140.485L1067.04 139.224H1067.29L1067.55 136.386L1068.07 135.44L1068.84 131.025L1069.88 130.394L1069.62 129.133L1070.4 123.141L1070.91 120.303L1071.69 117.465L1072.2 114.942L1072.98 114.627L1072.72 113.05L1073.49 111.788L1074.01 110.212L1074.78 108.004L1075.04 105.166L1074.78 104.22L1075.55 103.589L1076.6 102.643L1078.67 102.328L1077.63 101.697L1078.14 100.436L1079.96 100.751L1082.29 100.436L1083.59 100.751L1084.1 101.697L1085.14 102.012L1086.18 102.958V103.905H1086.96L1090.33 105.481L1090.59 108.319L1091.63 108.95L1093.19 112.419L1092.67 115.888L1091.63 119.357L1091.11 120.303L1090.86 121.88L1089.81 124.718L1089.3 127.556L1089.04 129.763L1088.27 130.709V132.286H1086.71L1086.97 135.44L1086.45 137.963H1085.41L1085.15 140.17V142.693L1084.11 143.639L1083.85 146.162L1084.11 148.054H1083.34L1083.08 149.315L1081.52 149.946L1082.04 150.892L1082.3 154.046L1081 155.622V157.514L1080.23 158.145L1079.97 159.407L1078.93 161.299L1079.7 162.56L1079.44 166.029L1078.93 167.29L1079.18 169.813L1078.14 171.075L1078.4 174.544L1077.36 185.581L1077.62 189.996L1078.13 192.519L1078.39 195.357L1078.91 198.51L1080.72 200.402L1086.42 202.925L1087.98 201.664H1089.54L1089.79 201.033L1091.09 201.349L1092.39 200.402L1093.17 199.772L1093.42 198.826H1094.2L1095.5 197.88L1096.8 197.564L1097.05 196.934L1097.83 196.303L1098.6 194.726L1101.45 192.519L1101.7 190.627L1102.74 189.68L1104.3 186.212L1106.37 183.058L1106.89 182.743L1107.41 181.481L1108.18 179.274L1109.74 178.643L1110.25 176.12L1111.02 175.805V175.49L1111.28 175.174V175.49H1111.54V175.174L1112.06 174.859L1112.31 173.913L1113.35 172.967L1114.13 172.021L1114.39 170.759L1114.64 169.813L1114.39 170.444L1113.09 172.336L1112.31 173.913L1111.8 174.544V173.913L1112.57 172.651L1113.34 170.759L1113.86 168.552L1114.38 167.606L1115.15 167.29L1116.19 165.083L1117.49 161.929L1118.26 161.299V161.614L1118.01 162.245L1117.23 163.506V164.137L1116.72 165.714L1117.76 165.083L1117.5 163.822L1118.27 162.875L1118.79 161.929L1119.05 160.668L1119.82 159.407L1120.59 159.091L1120.85 158.145L1121.11 156.884L1121.62 155.622V157.83L1121.88 157.199V155.938L1122.14 156.884V158.776L1121.62 159.722L1121.11 160.983L1120.85 162.245L1120.34 163.506L1120.08 164.452L1119.82 165.714L1119.3 167.29L1119.05 168.236L1118.27 169.183L1118.02 169.813L1117.76 171.39L1117.5 172.336L1118.02 171.705L1118.27 171.075L1119.05 169.813V168.552L1120.09 167.29V165.714L1120.35 165.083L1121.12 164.137V162.56H1121.04ZM1066.62 204.502L1066.36 206.079L1065.59 205.133L1064.82 203.871L1066.63 204.502H1066.62ZM1075.69 109.581V108.319L1077.25 107.689L1076.21 106.743L1076.47 105.166L1077.51 104.535L1076.73 103.274L1076.48 103.905L1075.96 104.851L1075.7 106.743L1075.19 108.004L1074.93 109.581L1074.16 111.158L1073.12 112.734V113.68L1073.37 112.734L1074.93 110.212L1075.7 109.581H1075.69ZM1079.58 213.647L1079.32 213.332L1078.28 212.701H1076.47L1075.95 212.386L1076.72 213.017L1077.77 213.332H1079.07L1079.58 213.647ZM1081.65 214.278L1081.14 213.963V214.278H1081.65ZM1084.77 71.1078L1085.54 70.1617L1085.28 68.2696L1086.06 65.7468L1086.57 63.5393L1087.34 61.0165L1088.39 58.4937L1090.46 56.6016L1090.2 54.7095V53.1327L1090.97 54.0787L1091.75 52.502L1093.05 50.6099H1094.35L1095.39 51.8713L1097.98 52.8173L1103.93 54.7095L1104.98 57.5476L1105.49 58.4937L1105.75 59.1244L1106.52 60.7012L1107.3 65.1161L1106.52 66.0622V67.3236L1106.26 68.585L1105.49 70.4771L1104.45 69.8464L1105.22 72.3692L1103.67 71.4232L1103.15 74.5767L1099.26 76.4688L1098.22 77.4149L1096.67 79.6223L1094.59 79.9377L1092.78 80.253L1090.96 80.8837L1087.34 78.0456L1085.78 74.2613L1084.74 71.1078H1084.77ZM1111.45 175.174H1111.19L1111.71 174.544L1111.45 175.174ZM1115.85 167.606L1115.08 168.236L1114.82 169.183L1115.08 168.552L1115.85 167.606ZM1116.64 172.021L1115.86 172.651L1115.61 174.228L1116.65 172.967V172.021H1116.64ZM1117.15 174.228L1117.41 173.913V174.228H1117.15ZM1117.93 174.228L1118.18 173.597V174.859L1117.41 177.066V175.174L1117.93 174.228ZM1118.71 160.983L1118.19 161.299L1118.71 159.722L1119.23 159.407L1118.71 160.983ZM1118.71 172.021L1119.48 171.705L1118.97 172.967L1118.45 173.597L1118.71 172.021ZM1120.01 159.091L1119.24 159.407L1119.49 158.145L1120.53 155.938V155.622L1121.05 155.307H1121.57L1120.79 155.938L1120.53 157.199L1119.76 158.145L1120.02 159.091H1120.01ZM1119.48 160.983L1120 161.929L1119.74 162.875V163.822L1120.26 162.875L1120 162.245V160.983L1120.26 160.668L1119.74 160.353L1120.78 159.722L1120.27 159.407L1119.75 159.722L1119.49 160.983H1119.48ZM1120.52 160.668V160.983H1120.27V161.614L1120.78 160.353L1120.52 160.668ZM1120.78 160.983L1120.52 161.929L1120.78 161.299V160.983ZM1121.04 158.461L1121.3 157.83V157.199L1121.04 157.83V158.461ZM1121.04 160.668L1121.3 159.407V158.461L1121.04 159.722V160.668ZM1121.56 155.307L1121.81 155.938L1121.56 155.622V155.307ZM1122.34 158.461L1122.08 160.668L1121.82 161.614L1122.08 159.091V158.776L1122.34 158.461Z" fill="#0C7BD6"/>
<path d="M1220.81 159.407L1220.29 160.668V162.56L1218.99 163.191L1219.25 164.452L1218.73 165.083L1217.69 165.714L1217.18 167.921H1215.88L1215.62 169.183L1213.03 172.021L1213.8 174.544L1211.22 177.066L1209.14 180.851L1207.59 182.427H1205.77L1206.55 181.797L1207.59 181.166L1208.63 179.905L1208.37 178.959L1210.44 177.066L1210.96 175.805L1211.47 175.174H1211.22L1210.44 176.12L1210.19 177.066L1208.63 177.697L1208.11 178.328V179.589L1207.34 180.535L1206.04 181.481L1205 182.427V182.743L1203.7 184.004V184.95L1202.66 185.896L1202.14 186.842L1200.59 187.158L1199.81 189.05L1197.22 190.627V191.888L1196.18 192.203L1194.11 194.096V195.042L1192.81 195.988L1192.55 196.303L1190.22 198.195L1189.71 199.141L1188.93 200.087L1187.89 200.718L1186.85 201.664L1186.59 201.979L1186.08 202.925L1187.12 201.664L1188.16 201.349L1189.2 200.718L1191.28 198.826V197.88L1192.05 197.249L1193.61 196.303L1193.86 195.988L1195.68 195.042V193.78L1197.23 193.149V192.519L1198.53 191.573L1199.31 190.942L1199.56 189.996L1200.34 188.735L1201.64 187.788L1201.9 187.158L1202.67 186.527L1203.71 185.581L1205.27 183.689L1205.52 183.058L1205.01 185.581L1204.24 186.842L1202.68 188.104L1201.38 190.627L1199.82 191.573L1199.05 194.096L1195.16 195.357L1195.42 197.88L1194.38 199.457L1190.49 201.349L1190.23 203.556L1188.42 204.502L1185.05 206.079L1183.49 206.71L1182.98 208.602L1179.6 208.286L1178.05 210.809L1176.75 210.494L1175.45 211.755L1173.38 212.071L1164.05 214.278L1162.75 214.909H1158.6V215.855L1158.09 214.909L1155.24 214.593H1149.02L1145.39 213.332L1142.28 211.755L1139.43 210.809L1138.13 209.548L1136.06 208.602L1134.76 207.656L1131.39 206.079L1130.62 205.448L1129.58 204.187L1128.28 203.241L1126.72 201.664L1125.95 200.718L1124.91 200.087V197.88L1123.35 196.934L1122.58 195.357L1121.54 193.465L1121.28 190.942L1119.98 189.681V187.158L1118.94 185.581L1117.64 183.058L1117.9 181.797V178.328L1117.38 177.066L1116.61 176.12L1117.12 169.183L1116.61 166.975L1116.86 162.56L1117.38 161.93L1117.12 154.676L1118.42 149.315V147.739L1119.2 146.793L1119.71 145.531L1120.23 142.693L1120.48 141.116L1121.26 140.486L1122.56 137.017L1122.81 135.44L1123.59 135.125L1124.36 131.025L1125.66 130.394L1125.4 130.71V133.232L1124.89 134.178L1124.11 135.44L1123.34 136.386L1122.82 137.647L1122.31 138.593L1122.57 139.855L1122.31 141.116L1121.54 142.378L1120.49 143.324L1120.24 144.27V145.531L1120.49 146.793L1119.45 147.739L1118.94 149.315L1119.45 150.261L1119.2 151.523L1118.15 152.784L1117.9 154.046L1118.15 155.307L1117.64 156.253V158.461L1118.15 157.515L1118.41 156.569L1118.15 155.307L1118.41 154.361L1118.93 152.784L1119.7 151.838V149.315L1119.96 148.054L1121 147.108V145.847L1120.74 144.9L1122.04 143.324L1122.81 141.432V139.224L1124.11 138.278L1124.37 137.017L1124.89 136.071L1125.4 134.494V133.548L1125.66 132.286L1126.18 131.34L1127.73 130.71L1128.25 129.133L1127.99 128.187L1129.55 127.556V126.295L1130.06 125.664L1131.36 124.403L1131.88 123.141L1132.65 122.51L1132.39 121.249L1133.69 120.303L1133.95 119.357L1134.72 118.411L1136.02 117.78L1136.54 116.519L1137.84 114.942L1138.1 113.681L1139.39 112.734L1140.69 111.158L1141.21 110.212L1142.51 109.266L1142.77 108.32L1144.32 106.427L1145.36 105.481L1144.59 105.166L1144.07 106.427V106.743L1142.52 107.373L1141.48 108.635V109.266L1140.44 110.212L1139.92 111.158L1138.36 111.473L1137.85 112.419V113.365L1136.81 114.311L1136.55 114.942L1134.73 115.888L1134.99 117.149L1133.95 118.095L1132.91 118.726L1132.39 120.618L1131.09 121.88V122.51L1129.54 123.772L1129.8 125.033L1129.28 125.979L1128.24 126.61L1127.98 127.871L1126.42 129.133L1126.17 129.764L1125.91 130.079V128.817L1126.95 125.349L1128.25 124.718L1128.51 123.141L1129.02 122.826L1129.8 121.564L1130.57 120.934L1130.83 119.672V119.357L1132.13 117.78L1132.9 116.203L1134.71 114.942L1137.3 112.734L1137.56 111.473L1139.37 109.581L1140.15 108.32L1142.99 106.427L1144.03 105.481L1144.55 104.22L1147.92 102.959L1148.7 101.697L1150.25 101.066L1151.29 101.382L1151.55 100.751L1152.32 100.12L1154.4 99.4897L1156.21 99.1743L1164.76 100.436L1165.53 101.066L1167.09 101.697L1168.13 102.012L1169.43 103.274L1172.8 105.166L1173.57 106.112L1175.39 107.689L1179.28 109.896V110.212L1180.83 110.842L1183.42 114.311L1184.2 116.203L1185.24 117.465L1186.01 121.564L1186.27 125.664L1186.01 128.187L1184.71 131.34L1184.2 135.125V135.755L1183.15 137.017H1182.9V138.909L1181.08 141.116L1177.71 141.747L1174.86 141.432L1173.57 139.855L1171.23 136.071L1170.19 131.971L1169.68 129.764V128.502L1169.16 126.61L1168.65 125.033L1168.39 123.456L1167.87 122.195H1167.62L1166.84 119.672L1166.58 117.78L1165.81 116.203L1164.25 113.996L1162.44 114.627L1159.85 116.519L1159.34 117.465L1157.78 118.726L1157.26 120.303H1155.96L1154.15 123.772V124.087L1152.85 124.403H1152.59L1152.08 125.664L1150.78 127.871L1148.71 129.448L1147.15 131.34L1146.11 132.917L1145.85 133.548L1145.59 136.071L1144.03 136.701L1142.99 138.278L1142.22 137.963V141.747L1141.45 143.639L1140.41 144.27L1140.66 145.531L1139.36 145.847L1138.85 147.739L1137.81 148.054V149.315H1137.29L1136.25 150.892L1135.21 155.938L1134.95 158.145L1133.65 159.722V162.245L1132.88 164.137L1131.84 168.237H1131.32V169.498L1130.81 170.444L1131.06 170.759V172.967L1130.81 178.643L1131.06 184.95L1132.62 188.419L1133.14 192.203L1134.44 193.149L1135.99 195.988L1137.81 197.564L1138.58 199.457L1140.91 201.033L1149.46 204.187L1153.6 204.502L1154.9 204.187H1157.49V203.871L1158.79 203.556H1160.6L1163.19 202.295H1163.71L1164.75 201.349V200.718H1166.56L1168.64 199.772L1169.15 198.195L1169.93 197.564L1170.7 197.249L1172 195.357L1174.07 195.672V195.042L1174.84 194.096L1176.66 192.519V192.203L1178.22 191.888L1178.73 190.311L1182.1 186.842L1182.88 186.212V185.581L1184.43 185.266L1185.73 183.058L1187.29 182.743L1187.55 181.481L1187.8 181.166H1188.58L1188.84 179.589H1189.88L1190.39 178.643H1191.69L1192.47 176.751L1195.05 174.859L1197.13 172.652L1198.68 171.39L1199.46 169.813L1200.75 169.183L1201.27 167.291L1202.31 166.975L1203.09 165.083L1204.13 164.137L1204.64 164.452L1205.94 162.56L1207.76 160.668L1210.87 157.515L1212.17 156.569L1215.01 154.046L1216.31 152.154L1218.39 153.415L1220.2 155.307L1220.72 159.407H1220.81ZM1125.97 130.394H1125.71L1125.97 130.079V130.394ZM1181.68 207.025L1181.42 206.079L1180.65 206.71L1181.69 207.025H1181.68ZM1183.23 205.133L1182.19 205.764H1181.93L1183.23 205.448V205.133ZM1185.05 203.556L1183.49 204.187L1183.23 204.818L1184.27 204.502L1185.05 203.556ZM1205.77 182.427L1205.51 182.743V182.427H1205.77Z" fill="#0C7BD6"/>
<path d="M1291.55 131.024V133.232L1291.03 133.547L1289.99 137.016H1287.92L1286.1 137.962L1285.85 138.908L1286.1 139.854L1287.4 139.224V138.277H1288.7L1290 137.331L1289.74 138.277L1289.23 140.485L1288.19 142.692H1287.41L1284.82 145.215L1282.75 146.161L1283.27 145.846L1283.53 144.9H1284.82L1286.12 143.638H1284.57L1285.61 143.008V142.062L1284.57 142.692V143.638H1284.05L1282.24 144.585L1281.72 145.531L1282.24 146.477L1282.75 146.161L1281.98 147.107L1281.21 144.9L1280.43 145.215H1280.17L1279.13 145.846L1278.36 146.792L1276.03 148.684H1273.96L1273.7 147.738L1272.93 146.161L1271.63 143.638V140.17L1271.88 136.701L1272.66 136.07L1272.4 134.493L1272.92 133.863L1272.66 131.024L1273.17 128.186H1273.69L1273.17 125.979H1273.43L1274.2 124.717L1274.72 119.356L1275.76 118.41L1274.46 113.68L1272.39 112.734L1269.54 113.049L1266.7 114.941L1263.07 120.302V121.879L1262.03 124.717L1261.25 125.033L1260.74 126.609L1260.48 127.24L1259.44 127.555L1258.14 131.97L1256.84 136.07L1256.33 136.701L1255.55 139.224L1254.25 142.062L1252.95 146.792L1250.88 151.522L1250.37 154.676L1248.81 155.307L1249.32 155.937L1249.07 157.199L1248.55 158.46L1245.96 165.398L1245.45 167.605L1244.93 169.182L1245.19 170.759L1244.15 172.02L1243.89 173.912H1243.38L1243.63 175.804L1242.33 177.066L1241.56 178.012V179.273L1240.26 180.219L1239.75 182.742L1239.49 186.211L1237.93 188.734L1236.89 192.203L1236.37 195.041L1236.12 196.618L1235.08 197.248L1235.33 198.51L1234.82 201.348V201.979L1234.3 202.294L1233 206.078L1231.45 209.232L1230.93 211.124L1230.41 212.07L1228.86 214.278L1227.82 214.593L1227.3 214.908L1226.53 216.17H1223.16L1222.64 215.854L1220.05 215.539L1218.75 213.962L1216.94 213.016L1216.42 211.439L1214.35 210.178L1214.09 208.917H1213.58L1212.8 208.286L1212.29 207.024L1211.51 202.925L1210.74 198.51L1211.26 197.248V193.464L1211 191.887H1211.77L1211.51 190.311H1212.03L1211.77 189.049H1212.29V185.265L1212.8 182.427V180.219L1213.32 179.589L1213.06 177.066L1213.58 175.804L1212.54 172.651L1214.35 172.966L1213.31 170.128L1214.35 166.659L1215.91 166.344L1215.39 162.875L1214.35 164.136V160.668L1215.39 162.244H1216.17L1216.42 160.668L1216.17 159.721L1216.42 158.775L1216.94 157.514L1216.68 156.253L1217.2 154.36L1216.94 153.099L1218.24 152.468L1217.72 150.576L1218.5 149.946L1219.54 148.053L1219.79 145.215L1217.72 147.107L1218.24 144.9L1217.98 143.954H1219.54L1219.02 142.062L1220.32 139.539L1218.76 137.647L1219.54 136.385L1220.05 136.07L1219.79 135.124H1220.31L1219.79 133.863L1221.09 132.286L1220.84 131.024L1221.35 130.394L1221.09 129.132L1221.61 126.609L1221.35 125.033L1222.39 124.087V122.825L1222.65 120.618H1220.06L1221.1 119.356L1219.55 118.095L1220.59 113.68L1220.33 110.526L1219.56 105.481L1219.04 102.643H1221.37L1223.19 103.273L1224.74 103.589L1225.26 104.535L1227.85 105.165L1228.62 106.427L1231.73 108.634L1232.77 109.896L1234.85 111.788L1235.89 113.365L1237.19 116.518V120.618L1237.45 121.248L1237.7 124.402L1236.93 125.033L1237.7 126.609H1236.93L1237.19 128.502V134.493L1237.45 137.647L1236.93 138.593L1236.67 140.8L1236.16 141.746L1237.46 142.692L1236.16 143.323L1236.41 145.215L1235.11 146.161L1235.37 148.053V150.892L1235.63 152.468L1233.82 153.099L1235.11 156.253L1233.56 159.721L1232 161.614V166.659L1232.52 167.29V168.867L1230.96 169.497L1231.48 172.966L1229.92 175.174L1230.69 173.912L1228.88 174.543L1229.14 175.804L1229.65 174.858L1230.17 176.435L1229.65 177.066L1229.91 184.004L1231.98 180.219L1231.72 177.066L1232.5 176.751L1233.01 175.174L1233.53 172.966L1234.3 171.705L1234.56 170.443L1235.33 170.128L1236.63 166.975L1236.37 165.082L1237.15 163.506L1237.92 161.614V159.721L1238.69 158.46L1239.47 157.829L1239.73 155.622L1240.5 153.099L1241.27 151.838L1242.05 148.053L1242.82 146.792L1243.34 144.9L1245.41 138.908L1245.92 137.331V136.385L1246.7 133.547L1248.25 130.394L1249.3 126.925L1249.81 124.717L1250.85 124.087L1251.89 120.302L1252.67 118.726L1253.71 117.78L1254.22 115.572L1256.3 111.788L1257.34 110.526L1257.59 109.265L1258.89 108.319L1259.67 106.742H1261.22L1260.71 105.165L1262.27 104.219H1263.31L1264.61 102.643H1272.12L1273.42 102.958L1274.19 104.219H1276.27L1276.52 104.535L1277.57 106.111L1280.15 107.373L1280.67 108.319L1283 111.157L1284.04 111.788L1284.81 112.734L1285.59 114.311H1286.1L1287.4 115.887L1288.18 117.464L1288.69 118.41L1289.73 119.987L1290.25 123.456L1291.29 128.186L1291.55 131.024ZM1216.39 154.045L1215.35 152.153L1217.42 148.369L1217.68 152.468H1216.13L1216.38 154.045H1216.39ZM1217.69 136.07L1216.14 136.701V134.493L1217.95 135.439L1217.69 136.07ZM1216.92 132.916L1216.66 132.286L1217.43 133.863L1216.92 132.916ZM1219.51 127.871L1216.92 129.132L1217.69 126.925L1218.21 126.609L1219.51 123.456L1220.81 123.771L1219.76 124.402L1219.51 127.871ZM1217.43 131.97L1217.18 131.655L1218.48 132.286L1217.43 131.97ZM1230.65 159.091L1231.69 159.721H1231.95L1231.69 158.46L1230.65 159.091ZM1248.53 133.232L1248.27 131.655L1247.76 132.286L1247.5 132.916V133.863H1248.27L1248.53 133.232ZM1251.89 126.294L1251.64 125.033L1251.12 125.663L1250.35 127.555L1250.6 128.817L1251.65 127.871L1251.9 126.294H1251.89ZM1256.82 115.887L1256.05 113.68L1253.72 118.095L1251.9 120.618V123.771L1252.94 122.194L1254.24 120.933L1255.02 119.672L1255.79 117.149L1256.83 115.887H1256.82ZM1258.64 112.103V110.842L1257.86 111.157L1256.56 112.734L1257.08 113.049L1258.64 112.103ZM1260.71 110.842L1260.19 110.526L1259.68 110.842L1259.16 111.788L1258.12 113.049H1259.16L1259.68 112.419H1260.19L1260.71 111.472V110.842ZM1258.89 109.896H1260.19V108.319L1259.68 107.373L1258.9 109.896H1258.89ZM1275.74 125.033L1276.78 123.771L1276.01 122.51V121.564L1276.52 119.987L1276.27 118.726L1276.01 116.203L1275.75 114.941L1276.01 114.311L1275.49 112.734H1274.45L1275.49 114.311L1275.75 115.572L1276.01 117.78V120.302L1275.75 121.564L1275.24 123.141L1275.75 124.402L1274.98 125.663V126.294L1275.24 127.555L1274.46 129.132L1274.72 130.394L1273.95 131.34V132.601L1274.2 133.863L1273.69 135.124V136.07L1273.17 138.593L1272.13 139.854L1272.39 141.431V139.854L1273.43 138.908L1273.95 137.962L1274.2 136.701L1274.46 135.124L1274.72 134.493L1274.98 133.232L1274.2 131.655L1274.72 130.709L1275.49 129.448L1276.01 126.925L1276.27 126.294L1275.75 125.033H1275.74ZM1277.81 147.738L1278.33 148.369H1276.51C1276.51 148.369 1277.56 148.053 1277.81 147.738ZM1280.4 147.738L1279.89 148.053L1278.84 148.369L1278.33 147.738L1278.59 146.792L1279.36 146.477L1280.4 147.738ZM1280.14 145.215H1281.19V145.846L1281.7 146.792L1281.19 147.423L1280.14 146.477V145.215ZM1283.77 143.323L1283.26 142.377L1282.48 143.008L1281.97 144.269L1283.78 143.323H1283.77ZM1284.03 140.8L1283.26 142.062L1284.03 143.008V140.8ZM1285.85 142.692H1286.89L1287.66 141.746L1287.92 140.485V138.593L1286.88 140.485V141.431L1285.84 142.692H1285.85ZM1289.99 137.331V137.016H1290.25L1289.99 137.331Z" fill="#0C7BD6"/>
<path d="M1371.87 155.622L1370.57 155.938L1370.83 157.199L1369.27 158.145L1370.57 158.776L1370.05 161.929L1368.5 164.768L1368.24 166.344L1367.47 166.975V170.129L1368.24 172.021L1366.94 172.651L1366.68 175.174L1365.91 175.805L1366.17 178.012L1364.87 180.535L1363.05 184.635L1362.79 186.527L1361.75 188.734L1360.45 190.311L1358.12 191.573L1358.38 193.149L1357.08 195.357L1356.57 198.195H1355.79L1355.54 199.456L1353.46 201.348L1352.95 202.295L1352.69 203.556H1351.92L1351.66 205.133L1351.14 206.079L1350.63 206.709L1349.59 207.656H1348.81L1348.3 208.602L1347.52 209.548L1345.19 210.809H1344.94L1344.16 212.701L1340.79 214.593H1339.49L1335.09 216.17L1331.98 216.485L1326.27 216.17L1325.5 216.801L1324.2 215.224L1318.5 213.647H1317.98L1316.43 212.386L1313.84 211.44L1312.54 210.809V209.548L1310.73 209.232L1310.21 207.971L1308.65 207.656L1306.32 203.871L1303.73 200.402L1302.44 195.672H1302.18L1301.4 194.411L1300.36 192.203L1299.59 185.581L1299.07 185.265L1299.33 184.319L1298.82 183.373L1299.07 182.427L1297.77 174.228L1298.29 172.967L1298.03 171.075L1298.81 169.813L1298.55 165.083L1299.32 161.614V159.091L1299.84 158.776L1300.61 157.199L1301.13 150.892V150.261L1302.43 149.631L1302.68 146.477L1303.46 145.216L1303.2 143.639L1303.71 143.008L1303.97 140.485H1305.01L1306.57 136.07L1308.13 131.971L1310.46 129.763L1310.97 127.241L1312.27 126.294L1312.79 124.718L1314.09 121.564L1315.9 120.933L1315.64 121.564L1315.13 122.51L1314.35 123.772L1313.84 124.718L1313.58 125.979L1313.07 126.61L1312.55 128.187L1311.78 128.817L1310.74 130.079L1310.22 131.34L1309.96 132.286L1309.45 133.548L1308.93 135.44L1308.16 136.386L1307.38 137.647L1307.64 138.909L1306.08 140.801L1305.57 141.747V143.324L1304.01 145.216L1304.53 146.792L1303.49 147.738L1303.74 149L1304.79 148.054V146.477L1305.56 145.531L1305.82 144.27L1306.07 143.639L1307.63 141.116L1307.12 139.855L1307.63 139.224L1309.19 137.647V136.701L1309.45 136.07L1310.49 134.494L1311.26 133.863V132.602L1312.3 131.34L1311.79 130.709L1312.83 129.133L1313.6 128.502V127.556L1314.12 126.61L1315.16 125.348L1315.67 124.087L1316.71 123.456L1316.97 122.195L1317.23 121.249L1318.27 120.303L1319.57 119.672L1319.31 118.411L1320.87 117.78L1321.13 116.834L1322.43 115.888L1322.68 114.942L1323.2 113.68L1324.24 113.05L1325.8 112.419L1326.57 111.158L1327.34 110.842L1328.12 109.896L1328.63 108.95L1329.67 108.319L1330.97 107.689L1331.49 106.743L1332.79 105.797L1333.05 105.481L1334.35 104.85L1335.64 103.904H1333.83L1333.06 104.535L1331.24 105.166L1330.2 105.481L1329.16 106.743L1327.6 107.689L1327.34 108.319L1326.57 109.265L1324.76 109.896L1323.98 110.842V111.158L1322.94 112.419L1321.9 113.365L1321.64 114.311L1320.34 115.257L1320.09 115.888L1319.31 116.834L1318.27 117.78L1317.76 119.041L1316.46 120.618L1316.2 119.672L1316.71 118.726L1318.27 116.834L1318.01 115.888L1319.83 114.626L1320.87 113.05L1321.64 112.104L1323.46 110.842L1325.27 108.95L1326.57 108.635L1327.61 107.058L1329.68 105.481L1332.8 103.274L1335.64 102.328L1337.97 102.643H1343.42L1349.38 104.85L1353.01 106.427L1356.12 108.635L1357.68 109.581L1359.75 110.527L1360.52 111.473L1362.6 113.365L1365.44 116.519L1366.74 119.672L1364.93 120.618L1358.71 117.465L1354.31 115.888L1348.6 117.149L1344.98 119.672L1342.9 121.564L1340.57 123.141L1340.83 124.402L1338.76 125.348L1336.43 128.502L1334.1 131.34L1333.58 132.917L1332.28 133.548L1331.51 133.863L1331.25 135.44L1329.18 139.539L1328.66 139.855L1326.85 144.585L1326.08 145.531L1324 150.577L1323.74 152.153L1322.7 155.307L1321.15 158.46L1320.37 161.299L1319.07 162.875V163.821L1319.33 166.344L1318.82 169.182L1318.56 171.075L1317.79 175.174V180.851L1318.3 186.527L1317.53 187.788L1318.3 192.834L1317.26 193.78L1318.3 198.195L1320.89 203.871L1322.45 205.448L1325.82 206.709L1327.12 206.079L1327.37 205.133L1328.67 204.817H1329.45L1329.96 203.871L1331.52 203.556L1332.03 202.295L1333.08 201.979L1334.12 201.348L1335.67 199.772L1335.42 198.195L1337.23 197.564L1337.75 196.303L1339.56 195.672L1341.89 189.996L1343.19 189.365L1343.96 187.158L1346.29 184.004L1347.59 181.481L1348.11 180.851L1348.37 179.904L1349.14 179.589V176.436L1350.7 175.49L1351.47 172.967L1352.77 171.075V167.606L1354.07 166.344L1354.58 162.875L1354.33 160.983H1355.63V157.514L1356.4 156.253L1356.91 154.992V148.369L1357.96 143.008L1357.44 135.124L1357.18 133.548L1356.92 132.286L1356.41 130.709L1354.59 126.61L1355.37 125.348L1356.41 125.033L1357.97 124.402L1359.52 125.033L1362.11 126.294L1366.51 130.079L1368.07 131.971L1368.84 134.178L1370.92 141.431L1371.69 147.423L1371.43 148.369L1371.69 149.315L1371.95 153.73V155.622H1371.87ZM1303.72 176.436L1302.95 170.759V167.921L1300.88 166.344V171.39L1300.36 171.705L1301.66 177.066L1300.62 183.058L1301.66 184.95L1302.44 186.212L1303.48 189.365L1302.96 183.373L1302.19 176.436H1303.74H1303.72ZM1301.91 152.153V152.784L1302.95 152.153L1302.44 151.207L1301.92 152.153H1301.91ZM1316.42 120.933H1315.9L1316.16 120.618H1316.42V120.933ZM1344.93 210.178H1343.63L1342.59 211.124V212.07L1341.54 212.386L1339.21 213.332L1338.44 214.278L1336.37 214.593L1334.04 215.539L1336.11 215.224L1336.88 214.909L1337.92 214.593L1339.74 213.963H1340.26L1341.81 213.017L1343.11 211.44L1344.41 210.809L1344.93 210.178ZM1366.95 138.278L1368.76 137.332L1367.99 135.755L1367.47 135.124L1366.18 133.232V135.124L1365.4 136.386L1366.96 138.278H1366.95ZM1366.95 143.954L1366.69 141.431V139.539L1365.92 137.963L1366.18 140.485V143.639L1366.95 143.954ZM1367.99 141.431L1368.76 140.17L1368.51 138.909H1367.21L1367.98 141.431H1367.99ZM1369.28 147.108L1369.02 145.216L1367.98 144.585L1368.24 148.054L1369.28 147.108Z" fill="#0C7BD6"/>
<path d="M1506.36 189.995L1506.1 192.203L1505.59 195.041L1504.81 196.933L1504.3 198.51L1503.52 199.456V201.664L1500.41 204.817L1499.11 207.025L1497.3 207.971V209.547L1496 212.701L1492.11 215.224L1491.59 216.17L1490.04 218.377V219.008L1489 219.639L1486.67 221.215L1483.29 223.423L1482.78 223.738L1481.48 224.054L1480.71 225L1478.12 224.369L1473.46 224.684V224.054H1472.16L1469.31 223.423H1470.35L1472.43 223.738H1473.73L1473.47 223.423H1472.17L1470.87 223.108L1468.8 222.477L1467.5 222.161L1466.98 221.846L1464.91 221.215L1464.14 220.585L1463.62 220.269L1462.32 219.323L1459.99 218.693V218.377L1457.92 217.747L1457.66 216.485L1456.36 215.854L1454.81 215.224L1453.76 212.701L1452.99 212.07L1451.95 210.809V209.547L1450.65 208.286L1450.91 207.025L1449.87 205.763L1448.05 202.294V202.61L1448.57 204.186L1448.83 205.132L1448.57 206.394L1450.13 207.655L1450.38 208.601L1450.9 210.178L1451.41 210.809L1451.67 212.386L1452.45 213.332L1453.74 214.593L1454 214.908L1451.41 213.016L1449.86 209.547L1447.53 206.394L1447.01 201.664L1446.24 201.033L1445.72 196.618L1445.98 189.049V184.004L1446.75 183.373L1445.98 178.643H1447.02L1446.51 175.489L1447.02 174.859L1447.28 172.02L1447.79 171.705V170.128H1448.57L1448.31 167.921L1449.08 166.975V166.029L1449.34 162.875V160.668L1449.86 160.352L1450.63 158.776L1450.89 157.199H1451.4V155.307L1451.92 154.361L1452.69 152.784L1452.44 150.892L1452.95 150.576L1453.47 147.738L1455.28 142.062L1455.54 138.593L1457.35 136.07V133.547L1458.4 128.502L1459.17 125.348V122.195L1459.68 121.564L1460.2 119.672L1460.97 117.149L1461.49 116.518L1461.23 114.626L1461.75 113.68V112.419L1462 111.157L1461.23 108.634H1458.9L1457.6 110.211L1455.79 112.734L1453.46 113.995L1452.16 115.888L1451.12 118.095L1450.08 119.672L1449.3 121.879L1448.53 123.456H1448.01L1446.2 125.033L1445.16 127.24L1444.38 130.078H1443.87L1443.35 131.34L1443.61 132.286L1442.31 134.493L1439.2 139.224V140.8L1438.16 141.116L1437.38 142.062L1436.61 143.639L1436.87 145.531L1436.09 146.477L1435.84 149L1434.54 151.838L1433.5 152.468H1432.72L1432.46 154.045L1429.09 160.668L1427.28 165.713L1425.98 169.813L1424.68 172.651L1423.64 174.228H1422.87V172.966L1423.12 171.705L1423.64 170.444L1424.15 169.498L1425.45 168.551L1425.97 166.975V166.344L1427.01 164.767V163.821L1425.97 165.083L1425.71 165.713L1424.67 167.29L1424.93 168.236L1424.15 169.498L1423.64 170.128L1423.12 171.705L1422.61 172.336V173.597L1421.05 174.543L1421.57 175.805L1422.34 175.174L1422.08 176.435L1421.82 176.751L1421.31 176.12L1419.75 178.012L1420.27 179.273L1420.01 179.904L1420.27 179.589L1421.04 178.012L1421.56 177.381L1421.04 178.958V180.535H1420.27L1420.53 184.634L1418.71 185.896L1418.45 187.157L1417.41 188.103L1416.64 190.942L1416.38 194.095L1414.82 195.672L1414.05 196.933L1413.53 197.879L1413.02 198.195V197.249L1412.76 197.879L1411.99 198.825L1411.21 199.141L1410.7 200.717L1410.96 201.348L1410.44 202.61L1408.88 203.556L1409.4 204.817L1409.14 206.394L1408.88 207.655L1408.37 208.286L1407.85 209.232L1408.63 210.178L1408.88 209.547L1409.93 208.601L1409.41 211.755L1406.04 212.386L1405 213.962L1402.15 214.278L1396.97 213.962L1395.15 212.07L1394.89 211.439L1392.82 209.547V208.601L1391.78 207.025H1390.74L1390.48 205.448L1389.71 202.294L1386.86 194.095L1387.63 188.734V181.796H1387.89L1388.15 180.535L1387.38 176.435L1388.15 174.859H1388.92L1388.67 172.336L1389.96 171.705L1389.71 167.29L1390.22 162.875L1391.26 158.46V154.676L1392.04 153.73L1392.55 152.153L1392.29 150.261L1393.59 148.684V146.477L1393.85 145.531L1395.15 144.585L1395.41 142.062L1395.92 140.17L1396.7 139.854V137.332L1397.47 133.547L1397.99 130.709H1398.24L1399.02 129.448V126.61H1399.53L1400.05 125.348L1399.53 122.825L1400.05 121.564L1400.56 121.249L1400.82 118.41L1401.08 117.149L1401.6 115.257L1402.11 112.103L1402.63 108.004L1400.81 100.435L1406.51 101.381L1411.7 104.85L1415.07 108.95L1415.85 112.103L1417.66 115.257V119.356L1417.4 123.141L1416.36 125.033L1415.59 128.502L1415.85 131.34V132.601L1415.07 133.232L1414.81 136.07L1413.26 136.701V138.278L1412.48 141.431L1411.71 143.323L1410.94 145.531V146.792L1410.42 149.946L1409.12 151.207L1409.38 152.153L1409.12 153.415V155.622L1408.35 156.883L1407.83 160.352L1408.09 160.668L1407.58 161.614L1406.8 164.767V167.29L1405.5 167.921L1404.99 169.498L1404.47 172.02L1404.21 174.228L1403.44 175.805L1402.4 181.796L1402.14 184.319V186.211L1401.63 188.734L1401.11 190.311V193.78L1400.85 195.041V199.456L1403.7 193.78L1406.03 189.049L1407.33 184.634L1409.14 181.481L1408.88 180.22L1410.18 178.327V176.435L1411.48 173.912L1412 172.336L1413.04 171.39L1414.08 168.236L1414.6 166.029H1415.37V164.767L1415.88 161.929L1417.44 159.722L1418.48 157.514L1419.52 154.676L1422.37 149.315L1423.93 145.215L1426.51 141.116L1427.56 137.962L1428.07 137.647L1428.59 137.016L1429.63 134.493L1431.7 131.971L1432.22 128.817L1434.29 125.663L1435.59 123.141L1437.14 119.356L1439.99 114.626L1441.55 112.419L1441.29 111.788L1442.33 111.473H1442.85L1443.36 110.211L1445.18 109.265L1446.99 106.742H1447.51L1448.28 106.112L1449.58 105.166L1450.35 104.85V103.273L1451.39 102.012L1453.21 100.751L1455.28 99.8046L1455.54 99.4892L1458.13 98.5431L1460.97 97.9124L1461.75 97.2817L1462 97.9124H1464.85L1465.11 98.5431L1467.95 99.1739V100.12H1470.54L1471.58 101.381L1475.21 103.273L1476.51 105.481L1478.58 108.95H1477.81L1477.55 108.634L1477.04 107.373L1475.48 106.112L1475.22 105.481L1474.18 104.535L1472.88 103.589L1471.84 102.958L1470.03 102.012L1468.73 100.435H1468.47L1470.03 102.012L1470.8 103.273L1472.61 104.22L1473.66 104.85L1474.43 106.427L1474.69 107.058L1475.46 108.319L1475.72 109.58L1477.28 110.527L1477.02 112.103L1477.79 113.365V114.941L1478.56 115.888L1479.08 114.941L1479.34 115.572L1479.6 116.518L1479.08 117.464V119.672L1478.82 123.771L1478.05 125.033L1477.79 126.61L1477.02 127.24L1477.28 129.132H1476.76L1476.24 130.709V132.601L1475.47 135.439L1474.7 138.908L1473.14 144.269L1472.62 147.107V150.576L1471.33 154.676L1469.77 155.307L1471.07 156.568L1469.77 157.199L1470.03 159.722L1470.8 161.614L1470.28 161.929L1468.47 164.452L1467.95 164.767L1468.21 166.975L1466.66 170.759L1467.17 173.282L1466.13 173.912L1465.87 176.435L1464.83 183.058L1465.6 183.373L1465.09 184.004L1465.35 185.896L1463.79 186.527L1463.53 192.203L1465.09 203.24L1468.46 209.232L1472.35 211.755L1476.75 213.332H1482.97L1483.48 212.386L1485.3 212.07L1487.11 211.124L1488.67 210.493L1489.44 209.232L1491 208.286L1491.26 207.655L1493.07 207.025L1493.59 205.763L1494.63 205.448L1495.93 203.556L1496.97 202.294L1497.48 201.348L1499.3 200.087L1499.56 198.195L1500.86 197.879L1503.19 194.095H1503.7L1504.22 192.834L1506.29 189.995H1506.36ZM1400.63 125.348L1401.41 126.61L1401.67 125.033L1401.92 120.933L1402.96 119.987L1402.19 119.041L1402.71 117.149L1402.45 115.257L1401.93 118.095L1401.16 120.618V124.717L1400.64 125.348H1400.63ZM1402.45 114.311L1402.96 113.365L1403.74 110.211L1403.22 108.634L1402.96 110.842L1402.45 114.311ZM1404.26 114.626L1403.49 116.518L1403.23 118.41L1404.01 119.987L1405.3 119.356V117.78L1404.26 114.626ZM1412.81 198.51L1413.07 199.771L1412.55 201.348V202.925L1412.04 203.871L1411.26 204.186L1411.01 205.763L1410.23 207.025L1409.97 208.286V208.601L1409.46 207.025L1409.72 205.763L1410.23 204.817L1411.01 203.871L1411.52 202.925L1411.78 201.033L1412.82 200.402V198.51H1412.81ZM1412.81 198.195H1413.07L1412.81 198.51V198.195ZM1419.3 181.481L1419.55 180.85L1419.04 181.166L1418.52 182.427L1417.75 183.373L1416.98 184.634L1417.23 185.896L1416.46 187.157L1416.2 188.103L1415.43 189.049L1415.17 190.311L1415.43 191.257H1415.69L1415.17 190.311L1416.73 189.365V188.103L1417.5 186.842L1417.24 185.896L1418.28 184.634L1418.03 184.004L1418.8 182.427L1419.32 181.481H1419.3ZM1421.63 177.066L1421.88 176.751V177.066L1421.63 177.381V177.066ZM1422.4 174.228H1422.92L1422.66 174.859L1422.4 175.174V174.228ZM1429.66 158.145V157.829L1428.88 158.46L1428.11 159.406L1428.37 160.668L1427.6 161.929V162.244L1428.11 161.929L1428.37 160.668L1429.41 159.722L1429.67 158.145H1429.66ZM1456.61 216.485V217.747L1455.57 216.485L1454.53 215.539L1454.01 214.908L1454.79 215.539L1456.6 216.485H1456.61ZM1469.05 223.423H1469.3L1466.46 224.054L1465.16 222.161H1462.31V221.531L1460.5 220.585L1458.43 219.954L1457.38 219.008L1456.61 218.062V217.747L1457.13 218.062L1458.68 218.693L1460.5 219.639V219.954L1462.83 221.531L1464.13 221.846L1465.68 222.161L1466.72 222.792L1468.28 223.108L1469.06 223.423H1469.05ZM1477.86 108.95L1478.38 109.896V110.211L1477.33 108.95H1477.85H1477.86ZM1478.12 111.157L1478.38 110.211L1478.63 112.103L1478.12 111.157ZM1478.89 113.68L1478.63 112.103L1479.15 113.68L1479.41 114.941H1479.15L1478.89 113.68ZM1503.26 201.033L1503 199.771L1502.48 201.033L1501.97 201.979L1500.67 203.871L1502.22 202.61L1503 201.664L1503.26 201.033ZM1504.03 197.249L1503.26 199.141L1504.03 198.195V197.249Z" fill="#0C7BD6"/>
<path d="M1547.56 218.692L1543.16 219.008L1542.38 218.692H1540.31L1537.72 218.062L1536.68 218.377L1536.17 218.692L1534.61 218.062L1533.84 216.8L1532.28 216.485L1530.98 215.854L1529.94 214.908L1529.42 213.962L1524.76 213.331L1521.92 210.809L1522.69 210.493V209.232L1520.88 208.286L1520.36 207.024L1518.8 206.078L1517.51 205.763L1517.25 204.186L1513.62 201.663L1517.51 205.763L1516.46 207.024L1516.21 207.655L1515.69 207.024L1514.13 206.078L1512.83 205.763L1512.58 204.817L1511.8 203.556L1510.76 202.609L1510.25 201.348L1509.21 200.087L1508.43 199.456L1507.92 197.248L1507.14 193.78L1505.07 188.103L1503.26 182.112L1501.7 174.228V169.497L1502.74 168.236L1501.97 166.029L1502.48 164.452L1502.22 162.875H1502.74L1502.48 160.037L1502.74 157.829L1502.48 155.307L1503 154.676V153.73L1503.77 150.261L1504.03 149.63L1504.29 148.369H1504.8V143.008L1504.54 141.746H1505.84L1507.14 139.224L1507.92 136.701L1507.66 135.439L1508.17 134.178L1508.69 133.547L1508.43 131.34L1510.5 129.448L1511.28 127.24L1513.61 124.402V123.141L1515.16 121.248V117.78L1516.98 116.518L1517.75 116.203V115.572L1519.05 114.626L1520.61 113.365L1521.12 111.473L1523.2 110.842L1522.94 108.95L1525.53 106.427V105.481H1527.08L1528.9 104.85H1529.67L1529.41 103.904L1530.97 103.273L1532.27 102.327L1534.08 100.751L1535.9 99.4891L1536.94 99.1738L1540.05 98.8584L1541.87 99.1738L1546.27 100.12L1548.09 101.381H1550.93L1554.56 104.85H1556.63L1557.68 104.535L1560.01 108.319L1561.05 109.58L1561.56 110.842L1563.12 111.473L1564.93 117.464L1565.45 123.771V127.24H1563.89L1564.15 129.132L1563.89 131.97L1562.34 133.863V137.647L1560.01 140.8L1556.63 142.692L1556.89 145.531L1555.34 146.792L1552.49 149.63L1548.6 151.522L1548.86 153.099L1547.56 153.414L1545.23 154.676L1541.09 155.937L1536.94 155.622L1536.68 157.199L1530.21 155.937H1529.43L1521.92 155.307L1520.62 153.73L1518.29 152.468L1518.03 160.352V164.136H1516.99L1516.47 165.398L1518.29 172.966V177.697L1518.55 179.904L1518.03 180.219L1518.29 181.796L1519.33 181.166L1519.85 184.004L1519.33 185.265L1520.1 186.211L1521.14 187.157L1522.44 192.834L1523.22 194.095L1525.29 195.356L1526.33 198.195L1528.15 199.141L1530.73 201.033L1532.03 202.294H1533.85L1534.62 203.556H1537.21L1540.84 204.186L1550.68 203.556L1553.27 202.294H1555.35L1556.39 201.033H1558.46L1560.27 199.456L1561.05 198.51L1562.09 197.564L1564.16 196.933L1565.98 195.672L1566.23 195.356L1567.27 194.726H1568.57L1568.32 194.095L1570.9 191.888L1571.42 191.572L1571.93 189.995H1572.45L1574.01 188.734L1579.19 182.427L1580.75 181.481L1581.01 180.219L1582.56 179.904L1582.31 178.327L1583.35 177.381L1585.16 175.805L1585.94 173.597H1586.98L1587.49 172.336L1589.31 170.128L1589.82 168.236L1590.86 167.605V166.975L1591.64 165.398L1592.68 164.136L1593.19 161.929L1593.97 160.983L1594.48 159.406L1595.78 158.775L1596.56 156.883L1598.37 155.937L1599.67 155.307L1599.93 154.676L1601.74 154.361L1602 155.307L1601.74 157.829H1600.97L1599.15 160.037L1599.67 162.875L1598.37 163.506L1598.63 165.083L1597.86 165.713L1596.56 166.029L1596.3 170.444L1595.78 172.02V172.966H1594.23L1593.18 173.597L1592.14 174.543L1591.37 174.858L1590.33 177.697L1589.56 178.958L1588.26 180.219L1590.84 181.481L1588.77 182.112L1587.22 182.427L1587.99 186.842V189.995L1586.43 192.203L1585.92 194.095L1584.36 195.356L1583.84 197.564L1580.73 199.456L1578.92 199.771L1578.14 201.033H1575.81L1575.55 202.294L1570.89 207.34L1568.31 208.917L1567.26 209.863L1566.49 211.439L1565.19 212.07L1564.93 213.331L1562.86 213.647L1561.56 214.593L1559.75 215.224L1560.26 217.431L1555.86 218.062L1552.49 219.008L1549.64 219.954L1547.57 218.692H1547.56ZM1508.17 141.116L1509.47 138.593L1509.99 135.124L1512.58 130.078L1513.62 126.609L1515.43 123.456L1517.76 120.933L1518.02 118.41L1515.95 121.564L1513.62 124.087L1511.8 128.817L1510.25 131.97L1508.43 136.385L1507.92 138.593L1507.14 142.062L1508.18 141.116H1508.17ZM1518.54 208.286L1521.12 209.547L1521.38 210.809L1518.54 208.286ZM1526.31 146.161L1528.13 145.531V144.9L1533.83 143.954L1534.87 142.377L1535.91 142.062L1537.47 140.8L1537.98 139.854L1540.05 138.908L1539.8 137.647L1542.13 136.385L1543.94 132.601L1545.5 131.97L1546.01 130.394L1547.31 129.448V127.556L1548.09 125.348L1548.34 122.51L1547.83 119.041L1548.09 117.78L1547.05 113.68L1545.23 114.311L1544.19 111.157L1542.63 110.842L1542.89 112.419L1540.82 111.473L1539.78 112.734L1537.7 113.68L1537.96 114.941L1536.41 115.572L1536.15 117.78L1534.85 119.987L1531.48 123.771L1530.44 124.402L1528.62 127.556L1528.11 129.448L1527.85 130.709H1526.55L1527.06 133.547L1525.51 134.493L1523.95 136.385L1523.43 136.701L1522.66 137.962L1521.1 142.377V144.269L1523.18 146.477L1526.29 146.161H1526.31ZM1551.19 217.746L1556.38 216.485L1557.42 215.539H1556.38L1555.34 216.17L1553 216.8L1551.45 217.116H1549.12L1547.05 216.8L1544.72 215.224L1542.13 215.539L1540.05 215.854H1537.98L1535.39 215.224L1534.35 214.593L1532.54 213.962L1533.84 215.224L1535.91 215.854L1537.21 216.485H1540.32L1542.39 217.116H1545.51L1549.4 217.746C1549.91 217.746 1550.95 218.062 1551.21 217.746H1551.19ZM1559.74 134.178L1559.22 132.917L1560.26 131.34L1559.49 130.394L1558.45 131.655L1557.41 133.232L1557.92 134.809L1558.96 136.385L1559.74 134.178ZM1561.81 130.394V126.925L1562.07 125.663L1561.81 124.402L1561.04 125.033L1560.78 125.663L1560.52 126.609L1559.75 126.925L1560.26 129.448L1560.52 131.024L1561.56 131.34L1561.82 130.394H1561.81ZM1588.25 184.634V184.004L1588.76 183.058H1589.28L1589.79 182.427H1590.83L1589.79 183.688L1589.28 184.634L1588.5 184.95L1588.25 184.634ZM1588.5 187.157L1588.76 185.58H1590.06L1589.02 188.103L1588.5 187.157ZM1590.32 183.373L1591.62 182.427L1592.39 182.742L1591.09 184.319L1590.05 184.634L1590.31 183.373H1590.32ZM1591.88 179.589L1592.92 178.327L1593.96 175.805L1594.73 174.543L1596.03 173.282L1597.07 171.705L1596.81 174.858L1595 177.381L1592.93 181.796L1591.89 179.589H1591.88ZM1597.05 167.605L1598.09 166.659L1598.35 167.921L1597.58 169.813L1597.06 170.444V167.605H1597.05ZM1600.42 162.244L1600.68 161.614H1601.2L1601.45 162.56L1601.2 163.19L1600.68 163.821L1600.42 162.244Z" fill="#0C7BD6"/>
<path d="M1339.88 87.1349C1380.76 92.7628 1386.01 65.4203 1387.21 52.2615C1387.35 50.7651 1385.86 49.3174 1383.97 49.0897C1325.82 41.9491 1324.23 64.4607 1322.79 84.7926L1322.02 95.7231" fill="#3D7E37"/>
<path d="M1339.88 87.1349C1380.76 92.7628 1386.01 65.4203 1387.21 52.2615C1387.35 50.7651 1385.86 49.3174 1383.97 49.0897C1325.82 41.9491 1324.23 64.4607 1322.79 84.7926L1322.02 95.7231" stroke="#21531C" stroke-linecap="round" stroke-linejoin="round"/>
<path d="M1325.11 76.8558C1325.11 76.8558 1328.47 61.062 1355.39 69.3574" stroke="#21531C" stroke-linecap="round" stroke-linejoin="round"/>
</svg>
