<svg width="543" height="331" viewBox="0 0 543 331" fill="none" xmlns="http://www.w3.org/2000/svg">
<path d="M73.4369 6.36321C77.3601 12.6726 76.2557 23.5738 75.3512 24.3886C74.6675 25.0052 73.3212 24.3556 71.6173 22.9351C62.4034 7.12298 44.8278 4.09489 35.6245 11.8358C28.6931 17.6607 26.3371 29.7401 29.4399 38.516C30.9755 42.8654 41.3148 54.7576 56.4923 63.3794C67.105 69.4025 72.606 75.5358 76.7816 81.2396C78.6433 83.7942 81.4621 88.2097 83.1661 94.4311C83.8287 96.8646 85.5221 103.923 83.9549 112.787C83.6499 114.527 82.3772 121.111 78.3488 127.52C68.7984 142.693 51.2859 144.995 48.162 145.402C45.0907 145.81 24.1809 148.551 10.7493 132.827C2.40851 123.06 -3.67093 105.894 2.55576 95.9396C4.18606 93.3299 6.33174 91.7443 7.99359 90.7864C9.6344 90.5221 12.2534 90.2578 12.7477 91.392C12.9055 91.7443 12.8003 92.1187 12.7477 92.2619C11.3909 97.4261 7.8253 101.654 7.32043 109.219C7.33095 109.968 7.38354 111.025 7.55183 112.269C9.38197 125.714 22.1509 138.3 35.5824 141.042C55.3143 145.061 76.5292 127.839 78.4645 110.144C79.4848 100.796 75.3827 92.8455 71.2596 87.2848C59.3427 71.2414 30.7862 70.878 22.8661 42.8544C21.9721 39.6722 21.1937 31.612 24.4123 22.5057C25.0223 20.7659 28.1567 12.2872 35.3615 6.62747C45.4378 -1.30062 60.3104 -1.21253 73.4369 6.37421V6.36321Z" fill="#012FA8"/>
<path d="M309.01 6.40723C305.686 4.85465 303.992 4.12791 302.173 4.92072C299.859 5.93375 298.113 8.99487 298.754 10.8668C299.459 12.9149 309.01 13.8398 308.326 24.2344C313.112 50.2209 308.967 112.688 306.959 128.94C306.959 130.427 305.475 134.027 302.856 134.886C301.489 135.624 299.438 137.111 298.754 138.597C298.176 141.416 300.122 144.18 300.805 143.794C300.805 143.794 369.572 155.499 394.448 117.059C409.457 93.8585 415.41 55.5944 394.448 27.9452C378.166 6.4733 350.177 0.307012 320.621 5.66948C313.143 7.9378 309.472 9.61151 309.609 10.7016C309.662 11.065 310.135 11.3733 311.05 11.6045C313.101 16.0641 341.153 2.28904 365.733 19.0261C381.826 29.9823 395.194 51.0027 395.131 75.4587C395.11 82.0875 394.09 97.1288 384.876 111.102C371.098 131.979 344.887 141.548 317.887 136.351C316.256 53.1499 316.698 23.9261 317.887 19.0151C318.024 18.4535 318.644 16.2403 317.887 13.8178C316.677 9.97487 312.786 8.15802 308.999 6.39623L309.01 6.40723Z" fill="#012FA8"/>
<path d="M415.642 5.58171C415.715 5.89003 415.799 6.23138 415.926 6.58374C416.199 7.38756 416.557 8.03722 416.883 8.55475C418.892 9.55677 421.511 11.2635 423.604 14.1925C423.604 14.1925 424.287 14.9633 424.677 15.8992C427.369 22.3298 425.897 33.1649 425.897 65.659C425.897 83.7835 425.76 104.397 425.465 127.63C424.529 134.171 422.499 136.56 420.701 137.474C419.765 137.948 417.85 138.553 416.883 140.425C416.399 141.372 416.315 142.33 416.325 143.002C416.557 143.608 416.63 145.138 417.693 145.259C421.342 145.667 440.338 145.38 440.254 145.259C441.337 144.4 442.662 143.046 442.631 141.405C442.599 139.313 440.391 138.069 438.813 136.483C435.931 133.576 435.468 129.81 434.774 124.228C433.554 117.192 431.051 23.2547 432.134 21.3498C432.555 19.4889 435.153 12.9372 438.813 10.5258C440.306 9.54576 441.432 8.32351 442.631 7.57475C442.778 6.88104 442.631 6.59475 442.399 5.21835C440.717 3.64374 436.225 4.62374 430.23 4.62374C427.369 4.62374 415.926 2.65273 415.642 5.59273V5.58171Z" fill="#012FA8"/>
<path d="M190.965 11.5277C191.113 12.8601 191.281 15.6789 190.282 18.9162C189.672 20.9093 189.262 22.2196 188.231 22.605C186.99 23.0675 185.948 21.7792 183.445 20.3917C181.373 19.2356 179.774 18.674 177.292 18.1785C174.315 17.5839 171.991 17.4958 168.404 17.4407C165.627 17.3967 162.157 17.3857 158.149 17.4407C155.414 17.4407 148.788 18.1454 147.894 18.1785C145.117 18.2996 144.476 52.9079 144.476 52.9079C144.097 73.3338 144.276 89.8726 144.476 96.5014C144.602 100.543 143.519 123.446 145.159 126.793C145.496 128.192 146.106 130.031 147.21 131.969C147.631 132.706 147.999 133.235 148.325 133.642C149.24 134.787 149.514 135.074 149.935 135.668C150.713 136.758 151.533 138.3 151.302 139.357C150.797 141.703 148.125 143.938 147.2 144.532C144.623 146.184 131.475 145.27 128.667 144.753C128.057 144.532 126.017 143.475 125.322 143.046C125.007 142.87 124.365 142.418 124.144 141.625C123.902 140.756 124.313 139.93 124.639 139.346C125.901 137.089 128.068 135.217 129.424 134.171C129.424 134.171 130.676 133.037 133.526 128.258C137.628 114.956 136.945 74.3248 136.945 74.3248C136.945 74.3248 136.945 33.6933 134.894 18.1675C134.894 18.1675 124.239 17.5619 120.537 17.4297C113.826 17.1875 110.471 17.4297 106.863 18.1675C97.9123 20.0063 93.926 23.9814 91.8224 21.8562C89.8555 19.8742 90.3919 13.4657 90.455 12.9922C90.4866 12.761 90.5286 12.5187 90.5286 12.5187C90.6338 11.9021 91.612 6.02208 91.8224 5.60365C93.1897 2.97196 99.3322 4.00702 100.026 4.12814C106.632 5.21826 124.902 5.90096 153.342 6.34141C162.083 6.00006 170.813 5.65871 179.553 5.31736C183.729 3.72073 187.747 3.985 189.567 6.34141C190.503 7.55264 190.66 9.06118 190.934 11.5167L190.965 11.5277Z" fill="#012FA8"/>
<path d="M210.571 6.05528C210.266 6.88112 209.719 8.45573 209.204 10.4818C207.815 15.9764 207.826 20.469 207.836 22.2858C207.91 32.1849 208.794 75.2169 208.457 81.7575C208.415 82.6605 208.205 86.4483 208.31 91.6236C208.352 93.3524 208.425 95.2683 208.573 97.3605C209.183 106.059 210.582 112.974 211.56 117.104C212.591 119.669 214.326 123.27 217.145 126.882C218.502 128.621 221.52 132.42 226.453 135.151C232.617 138.575 238.139 138.311 240.726 138.157C243.419 137.992 250.613 137.441 257.482 131.385C258.912 130.119 261.394 127.674 263.687 123.864C267.284 117.885 268.505 111.741 269.272 105.817C269.546 100.19 269.914 58.5789 270.513 44.9029C271.102 40.8948 271.86 25.1378 271.755 22.3409C271.912 21.2178 272.102 18.8283 271.134 16.3288C269.125 11.1094 263.203 11.2196 262.446 8.80809C262.509 8.15843 262.688 7.6409 262.877 7.25551C263.929 5.15236 266.769 4.18337 270.03 4.57978C275.72 4.31551 279.18 4.22742 280.432 4.29349C282.451 4.59079 283.209 5.04225 283.535 5.80202C284.103 7.11236 283.04 8.60989 282.294 11.8142C281.799 13.9283 281.684 15.7782 281.673 17.0775C281.463 19.0816 281.263 21.0856 281.053 23.0897C281.053 24.7854 281.042 27.4061 281.053 30.6103C281.074 36.3802 281.137 39.2321 281.179 42.5796C281.294 53.2715 280.958 55.0993 280.958 74.0056V76.6703C280.958 92.1631 280.527 103.119 279.675 109.528C278.77 116.289 276.761 122.532 273.648 128.258C267.379 139.721 256.156 145.458 240.001 145.458C219.017 145.458 207.027 132.222 204.018 105.74C203.261 99.1222 202.893 89.2892 202.893 76.2519C202.893 47.9861 202.788 52.8751 202.514 45.8499C201.515 20.0396 198.591 8.49978 203.724 5.30652C205.112 4.44764 210.561 4.56877 210.561 6.04427L210.571 6.05528Z" fill="#012FA8"/>
<path d="M542.784 68.5216V75.1724C542.784 84.1686 541.679 93.2418 539.471 102.37C535.295 119.669 527.596 131.561 516.352 138.058C510.314 141.592 504.182 143.365 497.945 143.365H496.325C483.62 143.365 473.238 137.1 465.182 124.558C461.847 119.283 459.144 112.467 457.083 104.11C455.074 95.7524 454.064 87.1636 454.064 78.3546V73.9171C454.064 71.4286 454.138 68.94 454.285 66.4625C454.895 56.0679 456.62 48.2719 457.156 45.9486C460.196 32.8562 464.561 24.6528 466.465 21.3385C471.755 12.111 474.648 11.4504 476.12 11.6155C477.277 11.7477 478.75 12.4964 478.866 13.4654C479.076 15.1942 474.879 17.0331 474.101 17.3964C463.772 22.3405 460.743 51.8396 460.743 51.8396C458.839 69.5567 456.704 102.117 469.925 119.757C471.86 122.345 483.294 134.567 496.946 133.025C514.522 131.054 523.725 109.77 525.145 106.477C529.552 96.3029 529.941 87.2627 530.435 76.2405C531.109 60.9459 531.95 44.3519 523.388 29.7841C520.948 25.6328 512.87 12.4193 498.713 10.6135C491.771 9.73261 486.007 11.9349 482.726 13.5645C481.758 14.071 480.401 14.985 479.928 16.5155C479.097 19.1913 481.569 21.7459 480.885 22.4176C480.254 23.0342 477.235 21.834 476.12 19.4665C474.69 16.4274 476.699 12.122 478.981 9.6225C478.981 9.6225 483.304 4.88767 497.945 3.97373C498.513 3.9407 499.081 3.92969 499.081 3.92969C499.807 3.92969 500.533 3.97373 501.258 3.97373C506.318 3.97373 511.587 5.51531 517.088 8.59845C528.132 14.7097 535.716 26.3816 539.839 43.6032C541.805 51.7074 542.784 59.9989 542.784 68.4886V68.5216Z" fill="#012FA8"/>
<path d="M42.1823 279.551L42.547 280.191L42 279.337L42.1823 279.551ZM42.9187 268.663L43.101 269.303V272.506L42.9187 268.663ZM139.862 265.888L139.315 266.955L138.768 267.809V270.157L137.485 271.011L137.12 273.146L135.29 275.921L134.743 278.056L134.378 278.27L134.56 278.056L134.378 277.202L135.114 276.348V275.708L135.661 275.067L136.026 274.213L136.208 273.573L136.026 272.506L136.945 271.865L136.763 271.225L137.681 270.157L138.046 269.517L137.864 268.663V268.449L137.499 268.663V269.517L137.134 270.371L136.952 271.011L136.215 271.652L135.668 272.506L134.932 273.787L135.114 274.427L134.75 275.494L134.013 276.135L134.378 276.989L133.459 277.416L132.912 278.483V278.91L132.548 279.978L132.365 280.404L131.818 281.472L131.271 282.112V283.393L130.352 284.034V284.888L129.988 285.742L129.441 286.595L129.258 287.236L129.623 286.595L130.724 286.169L131.461 284.461L131.278 283.607L131.643 283.18L131.825 282.326L132.562 281.899L132.379 283.607L131.096 286.169V286.809L129.995 287.236L129.812 289.584L127.982 290.011V290.652L126.881 291.719L127.982 293.64L127.435 295.562L126.152 296.202L125.415 299.618L125.05 299.831L124.686 300.899L124.868 301.539L124.321 302.18L123.774 303.247L121.761 302.82L121.579 304.528L120.843 304.742L119.194 305.595L118.458 306.663L118.276 308.157L117.911 309.438L117.364 309.865L117.546 311.146L116.81 311.787L116.992 312.64L114.79 314.562L112.96 315.629L112.595 316.27L111.859 316.697H111.312L111.494 317.124H111.859L111.122 317.764L110.758 318.404L109.656 318.618L109.109 319.258L108.562 319.472L108.015 320.539L107.279 320.753L105.813 320.326L106.36 321.393L105.259 321.607L104.894 321.82L105.077 322.674L103.793 322.888L102.692 323.101V323.742H101.409L101.044 324.382L99.3961 325.022L96.8293 325.449L94.8165 326.303L87.116 326.944H85.1032L83.8197 326.517L79.4225 327.371L77.7744 326.944H75.0252L74.8428 325.876L73.1948 325.663L68.9798 324.809L67.514 323.742H66.967L66.0483 322.674L65.3119 322.247L62.9274 320.966V322.034L61.4617 320.753L59.6312 319.045L60.1782 318.618L59.2595 319.045L57.6114 317.124L57.9761 316.27L57.4291 316.697L56.882 315.843H55.7809L55.0446 313.921L53.9435 313.067V311.787L54.4905 312.213L54.1258 311.787L53.7611 310.719L53.2141 310.292L53.0318 309.652L52.6671 308.584L51.9307 307.944L51.3836 307.303L51.019 306.449L49.7356 305.809L49.5532 304.742L49.0062 304.528L49.3709 304.955L49.5532 305.595L50.1003 306.663L51.3836 308.157L51.9307 309.011L52.6671 309.652V310.292L52.1201 309.865L51.2013 309.438L51.019 308.371L50.4719 307.73L49.7356 306.663L48.9992 304.742V304.315H48.8168V303.461L47.8981 302.82L47.7157 302.607L47.351 301.753L46.0677 300.045L46.9864 302.82L45.703 301.539L44.9666 296.843L45.8853 295.562L44.7842 292.787V290.438L43.6831 289.584L44.4195 288.303L44.9666 286.169L44.4195 285.315L43.8725 284.674L44.2372 284.034L43.6902 283.393L43.8725 278.483L43.6902 276.989L43.8725 275.921L44.4195 274.64V272.933L44.2372 266.315L44.9736 265.888L44.6089 264.393L44.9736 261.831L45.1559 259.056L45.703 258.416L45.8853 257.562L45.703 254.787L46.4393 254.36V253.506L45.8923 253.079L46.257 252.652L46.0747 250.73L45.5276 250.303L44.0619 250.73L44.7983 247.315L46.0817 247.101L46.4464 247.955H47.5474L47.7298 244.539L48.2768 243.899L48.0945 241.978L49.3779 241.124L49.1955 239.629L49.5602 239.202L49.7426 238.348L50.2896 237.708L50.4719 231.73L52.1201 232.157L51.7554 230.236L52.6741 229.596V228.528L53.2211 227.674L53.4034 226.607V225.966L52.8564 225.326L53.4034 224.685L53.2211 223.404L54.1399 223.831V222.124L54.6869 220.629L55.788 221.483L55.6056 218.494L56.5243 218.067L57.9901 215.079L56.5243 215.506L57.9901 213.157L59.4559 210.169L60.3746 208.674L60.7393 207.82L62.2051 206.753L62.9414 206.112L63.8602 205.258L64.4072 205.045L64.7719 203.978L65.5083 203.337L65.6906 202.91L66.427 201.629L67.1634 201.202L66.9811 199.921L68.0821 198.64L69.1832 198L69.5479 197.573L70.4666 196.079L72.1147 194.584L73.7628 193.944L74.4992 192.022L76.1473 190.955L77.9778 188.393L79.2612 187.539L81.0916 186.045L82.1927 185.191L83.6585 184.337L84.5772 184.124L85.1242 183.483L85.6712 182.629L86.7723 182.416L86.9547 181.775H88.4205L90.9873 181.135L91.352 180.067L95.3846 179.64L95.5669 179L96.668 179.854L99.5995 180.494V180.921L100.518 181.135L102.531 181.348L103.45 182.416L104.733 182.843L106.381 184.124L108.394 184.551L109.86 185.404L110.596 186.045L112.981 186.685L119.58 190.742L120.864 192.022L121.6 193.09L123.613 193.944L123.977 195.011L125.078 195.652L124.714 196.292L125.815 200.348L126.362 201.629L127.463 202.483L126.916 202.91L126.551 205.472L127.288 210.596H126.923L126.558 211.449L127.295 213.584L126.748 214.438L126.565 216.146L126.201 218.067L125.654 218.281L125.836 219.775L125.1 219.989V221.483L124.363 222.124V223.404H123.444L123.262 224.258L122.526 225.966L121.425 228.101L120.506 229.169L119.04 230.022L116.291 230.236L112.623 229.596L111.704 228.742L110.968 227.888L110.603 226.393L110.056 225.112L109.874 223.404V221.056L110.056 219.775H110.603L110.421 218.708L110.786 218.494L110.603 216.573L110.968 216.146L111.15 215.079L110.603 214.225L111.15 213.371L111.333 212.73L111.88 211.876L112.062 210.809L110.961 210.382L112.062 209.955L111.143 208.247L110.596 208.034L111.697 207.393L111.15 203.551L110.603 202.697L109.867 202.483L110.968 202.27L110.786 200.989L109.684 199.921L107.854 194.798L107.489 195.652L106.753 193.517L106.017 192.663L104.916 190.742H104.368L103.821 189.674L103.085 189.247L100.883 188.82L100.701 188.393H99.5995L98.1337 188.607L96.121 189.674L96.3033 191.169H95.2022L94.1011 192.022H93.1824L92.6354 193.09L92.0884 193.303L91.7237 194.371L89.8932 195.011L88.0628 196.079L86.7793 197.146L86.597 198V198.213L86.2323 198.854L85.3136 200.348L84.5772 200.562L84.3948 201.202L83.6585 201.843L83.1115 202.056L82.5644 202.697V202.91L82.0174 203.551H81.6527L80.5516 206.539L80.3693 206.966L79.4505 207.18H78.9035L79.0858 208.247H77.4377L77.073 209.742L75.972 211.236L75.7897 211.663L74.6886 212.303L74.5062 213.371L73.7698 215.079H72.6688L72.8511 215.719L72.1147 216.573L71.9324 217.213L70.4666 220.843V221.697H69.5479L67.8998 225.112L67.1634 226.393L66.6164 226.607L66.9811 228.955H66.6164L65.5153 230.236V230.876L64.9683 231.73L64.4212 232.371L64.6036 232.798L64.0565 233.652L63.6919 235.146L62.9554 235.787L62.7731 237.921L62.9554 239.629L61.8544 240.056L61.3074 245.393L60.571 248.382L60.3886 249.876L59.2875 250.303L59.4699 251.371L59.2875 252.652L58.0041 254.787V257.135H57.4571L57.2748 258.202L58.0111 260.978L57.8288 262.045V262.899L57.4641 263.112L57.6465 264.18H57.2818L57.8288 265.888L58.1935 267.382L57.4571 269.09L57.2748 272.506L58.1935 269.944L58.3758 269.09L58.7405 268.663L58.3758 266.315L58.9228 265.674L59.6593 265.034L59.8416 267.169L60.2063 271.225L60.0239 271.438L60.7603 272.506L60.0239 271.652L58.0111 273.36L57.8288 276.135L57.0924 275.067L56.5454 276.562L57.2818 278.483L57.4641 279.124L57.0994 279.764L58.5652 280.831L58.2005 284.888L59.3016 285.742L59.8486 288.73L61.132 294.494L60.7673 299.618L62.2331 300.685L63.5165 301.539V303.034L64.0635 304.315L65.7117 306.449L65.894 307.944L66.6304 308.157L67.1774 308.371L67.7245 309.011L68.6432 309.652L69.5619 311.573L70.8453 313.067L71.9464 313.281L72.8651 314.775L75.7967 316.056L78.1811 317.337L80.1939 317.551L81.1127 317.764V318.191L83.4972 317.764H89.1779L89.9142 317.124L93.3998 316.056L93.7645 315.202L94.8656 314.348H96.8784L97.0607 313.494L98.1618 313.067L99.9923 312L101.458 310.933L101.823 310.506L102.741 309.865L103.288 308.584L104.39 307.73L105.126 306.663L106.409 305.809L107.693 304.315L108.976 303.247L110.077 301.753L113.009 298.124L113.191 296.843L114.475 296.202L115.022 295.562L115.94 294.281L118.142 291.719L118.507 290.438L118.872 289.584L120.338 288.303L124.005 283.18L125.107 280.618L127.309 278.697L128.592 277.202L129.693 275.494L129.876 274.213L131.159 273.573L131.706 272.933L132.071 271.865L132.435 270.584L133.719 269.73L134.083 268.236L134.82 266.742L135.739 265.674L137.204 264.607L138.852 264.18L139.954 265.888H139.862ZM48.7818 303.888V304.101L48.0454 303.461V303.034L48.2277 303.461L48.7747 303.888H48.7818ZM52.9967 221.483L52.078 220.629L52.4426 220.843L52.9897 221.483H52.9967ZM52.632 310.292L52.9967 310.719L52.632 310.506V310.292ZM53.5437 310.933L53.7261 311.36L52.9897 310.719L53.5367 310.933H53.5437ZM53.9084 311.573V311.787L53.7261 311.36L53.9084 311.573ZM73.1527 324.809H72.788L71.5045 324.382L70.7682 323.742L70.0318 323.528L68.7484 322.888L68.012 322.674L66.1815 321.607L65.2628 320.539L64.3441 320.112L63.797 319.685L62.1489 319.258L61.7842 318.618L60.6832 317.978L60.1362 317.337V316.91L58.8527 316.056L58.1163 315.629L56.8329 314.135L56.0965 313.494L55.1778 312.64L55.3602 313.281L56.0965 313.921L57.0153 314.562L57.1976 315.416L57.5623 316.056L59.0281 316.483V317.124L59.7644 317.764L60.8655 318.618L61.7842 319.045L62.3313 319.685L63.25 320.326L63.4324 320.539L64.3511 321.18L65.4522 321.607L65.9992 322.247L66.9179 322.461L67.6543 323.101L68.9377 323.528L69.3024 323.742L70.7682 324.382H70.9505L72.5986 325.022L72.781 325.236L73.1457 324.809H73.1527ZM55.5635 316.056L55.9282 316.697L55.3812 315.843L55.5635 316.056ZM57.7587 291.719L58.3057 294.708L59.0421 295.989V291.292L57.941 288.944L57.7587 291.719ZM60.3255 263.112L60.8725 264.18H60.5078V264.607L59.5891 264.18L60.3255 263.966V263.112ZM61.7913 259.91H60.3255L60.5078 259.056L61.7913 259.91ZM109.811 186.045L109.993 186.258L110.912 186.472L112.56 187.753L114.39 188.607L115.491 189.034L116.228 189.674L116.593 190.101L118.058 190.955L117.694 190.315L116.593 189.674L116.228 189.034L115.491 188.82L114.39 188.393L113.654 187.753L112.918 187.326L111.269 186.685L110.168 186.045H109.804H109.811ZM118.423 191.169L118.97 191.809L120.436 193.09V193.73L121.537 194.157L122.084 195.225V195.865L122.631 196.719L122.996 197.573L123.914 198.213L124.279 199.067L124.097 199.708L124.644 200.562V201.629L124.461 202.483L124.826 203.551L125.745 204.404L125.562 205.045V206.112L125.745 206.966L125.38 207.607L125.927 208.888V209.742H126.663L126.116 208.674L126.663 207.82L126.299 206.112L126.116 205.472L126.299 204.404L125.934 203.764L126.116 202.697L125.752 202.056L125.205 201.202L125.569 200.348L125.205 199.281L124.84 198.64L124.475 197.573L123.928 196.933L123.381 196.079L123.017 195.438L122.098 194.798L119.349 191.596L118.43 191.169H118.423ZM132.534 281.685L132.716 281.258L132.898 281.685L132.534 281.899V281.685ZM132.716 281.045L133.263 280.404L132.716 281.258V281.045ZM133.27 280.404L133.452 279.978V280.191L133.27 280.404ZM133.452 279.551L133.817 278.91L133.635 279.764L133.452 279.978V279.551ZM133.999 278.483L134.364 278.27L133.817 278.91L133.999 278.483ZM138.951 266.528L138.586 266.315L138.404 267.169V267.382L138.586 267.169L138.951 266.528Z" fill="#0C7BD6"/>
<path d="M184.859 288.73L185.406 288.09L184.859 291.292L184.312 292.146V292.787L183.765 293.214V294.494H183.029L182.846 295.135L182.299 296.416L182.117 295.775L181.935 296.416L181.388 297.056L181.205 297.697L180.841 298.764L180.658 299.405L180.476 299.831L180.294 300.685L179.747 301.539L179.564 302.18L179.017 302.607L178.835 303.674L178.652 304.315L177.734 304.528L177.916 305.809L177.551 306.449L177.004 307.09L176.822 307.944L178.288 305.382L178.835 304.742L179.017 303.888L179.564 303.247L179.929 302.607V301.753L180.848 300.685L181.212 299.831L181.03 298.764L181.577 297.91L181.759 297.056L182.124 296.629V297.91L181.759 300.258V300.685L180.476 301.753L180.294 302.607L179.929 303.247L179.382 304.315V305.169H178.835V306.022L177.369 308.371L177.187 308.584L176.64 309.865L176.093 310.933L174.445 312.854L173.897 313.281V313.921L173.35 314.775L172.803 314.989V315.843L172.067 315.629L171.52 317.551L171.155 317.764L170.608 317.551L170.426 318.191L170.061 318.831L169.697 319.045L169.15 319.685L168.785 320.326L168.42 320.539L168.056 321.393L167.508 321.607H166.407L165.86 322.674H165.124L164.759 323.315L164.395 323.528V323.315L164.03 323.528L163.848 323.955L163.111 323.742L162.747 324.169H161.828L162.01 324.382L161.463 325.022H160.544L159.997 324.382H155.6L155.053 323.955L154.688 324.382L154.141 323.528L152.858 323.315H151.939L151.203 322.888L150.656 322.461L149.919 322.247L150.102 321.607L149.919 321.393L148.636 321.18L147.717 320.112L146.798 319.685L146.251 318.191L146.988 318.618L147.724 319.258L149.372 320.539L150.291 321.607L151.21 321.82L152.311 322.034L151.946 321.607L151.027 320.966L150.663 320.753L150.116 320.112L148.285 319.685L147.738 319.045L147.191 318.618L146.827 317.551V316.91L146.28 315.843L145.732 315.416L145.368 314.348L144.821 313.494L143.72 312.854L143.902 312L143.72 312.427V313.281L144.456 314.348L144.638 314.989L145.557 315.843L145.192 316.697L144.645 315.843L144.098 314.562L143.551 313.708L143.369 311.36L143.004 310.719L143.369 310.933L143.187 308.584L142.64 304.955L142.822 303.034V301.112L143.369 297.27V296.629L143.916 296.202L143.734 295.348L143.551 291.506L143.369 288.09L143.551 287.236L144.288 284.461H144.47L144.652 283.393H145.017V282.539L145.382 282.112L145.199 281.258L144.835 280.191L144.652 278.697H145.017L144.835 277.843L145.571 277.416V276.348L145.936 275.281L146.483 273.787L146.665 272.933H146.848L147.03 271.011L147.395 270.371L147.942 267.382L148.678 266.955L148.496 266.101L149.043 262.045L149.407 260.124L149.954 258.202L150.319 256.494L150.866 256.281L150.684 255.214L151.231 254.36L151.595 253.292L152.143 251.798L152.325 249.876L152.143 249.236L152.69 248.809L153.426 248.169L154.892 247.955L154.155 247.528L154.52 246.674L155.803 246.888L157.452 246.674L158.37 246.888L158.735 247.528L159.471 247.742L160.208 248.382V249.022H160.755L163.139 250.09L163.322 252.011L164.058 252.438L165.159 254.787L164.794 257.135L164.058 259.483L163.693 260.124L163.511 261.191L162.775 263.112L162.41 265.034L162.228 266.528L161.68 267.169V268.236H160.579L160.762 270.371L160.397 272.079H159.661L159.478 273.573V275.281L158.742 275.921L158.56 277.629L158.742 278.91H158.195L158.013 279.764L156.912 280.191L157.276 280.831L157.459 282.966L156.54 284.034V285.315L155.993 285.742L155.81 286.596L155.074 287.876L155.621 288.73L155.439 291.079L155.074 291.933L155.256 293.64L154.52 294.494L154.702 296.843L153.966 304.315L154.148 307.303L154.513 309.011L154.695 310.933L155.06 313.067L156.343 314.348L160.376 316.056L161.477 315.202H162.578L162.761 314.775L163.679 314.989L164.598 314.348L165.145 313.921L165.327 313.281H165.874L166.793 312.64L167.712 312.427L167.894 312L168.441 311.573L168.988 310.506L171.001 309.011L171.183 307.73L171.92 307.09L173.021 304.742L174.487 302.607L174.851 302.393L175.216 301.539L175.763 300.045L176.864 299.618L177.229 297.91L177.776 297.697V297.483L177.958 297.27V297.483H178.141V297.27L178.505 297.056L178.688 296.416L179.424 295.775L179.971 295.135L180.153 294.281L180.336 293.64L180.153 294.067L179.235 295.348L178.688 296.416L178.323 296.843V296.416L178.87 295.562L179.417 294.281L179.782 292.787L180.146 292.146L180.693 291.933L181.43 290.438L182.348 288.303L182.895 287.876V288.09L182.713 288.517L182.166 289.371V289.798L181.801 290.865L182.538 290.438L182.355 289.584L182.902 288.944L183.267 288.303L183.45 287.449L183.997 286.596L184.544 286.382L184.726 285.742L184.908 284.888L185.273 284.034V285.528L185.455 285.101V284.247L185.638 284.888V286.169L185.273 286.809L184.908 287.663L184.726 288.517L184.361 289.371L184.179 290.011L183.997 290.865L183.632 291.933L183.45 292.573L182.902 293.214L182.72 293.64L182.538 294.708L182.355 295.348L182.72 294.921L182.902 294.494L183.45 293.64V292.787L184.186 291.933V290.865L184.368 290.438L184.915 289.798V288.73H184.859ZM146.371 317.124L146.188 318.191L145.641 317.551L145.094 316.697L146.378 317.124H146.371ZM152.788 252.865V252.011L153.889 251.584L153.152 250.944L153.335 249.876L154.071 249.449L153.524 248.596L153.342 249.022L152.977 249.663L152.795 250.944L152.43 251.798L152.248 252.865L151.701 253.933L150.964 255V255.64L151.147 255L152.248 253.292L152.795 252.865H152.788ZM155.537 323.315L155.355 323.101L154.618 322.674H153.335L152.97 322.461L153.517 322.888L154.254 323.101H155.172L155.537 323.315ZM157.003 323.742L156.638 323.528V323.742H157.003ZM159.205 226.82L159.752 226.18L159.57 224.899L160.117 223.191L160.481 221.697L161.028 219.989L161.765 218.281L163.23 217L163.048 215.719V214.652L163.595 215.292L164.142 214.225L165.061 212.944H165.98L166.716 213.798L168.546 214.438L172.761 215.719L173.498 217.64L173.862 218.281L174.045 218.708L174.592 219.775L175.139 222.764L174.592 223.405V224.258L174.409 225.112L173.862 226.393L173.126 225.966L173.673 227.674L172.572 227.034L172.207 229.169L169.458 230.449L168.722 231.09L167.621 232.584L166.155 232.798L164.871 233.011L163.588 233.438L161.021 231.517L159.92 228.955L159.184 226.82H159.205ZM178.077 297.27H177.895L178.26 296.843L178.077 297.27ZM181.191 292.146L180.644 292.573L180.462 293.214L180.644 292.787L181.191 292.146ZM181.745 295.135L181.198 295.562L181.016 296.629L181.752 295.775V295.135H181.745ZM182.11 296.629L182.292 296.416V296.629H182.11ZM182.657 296.629L182.839 296.202V297.056L182.292 298.551V297.27L182.657 296.629ZM183.211 287.663L182.846 287.876L183.211 286.809L183.576 286.596L183.211 287.663ZM183.211 295.135L183.758 294.921L183.393 295.775L183.029 296.202L183.211 295.135ZM184.13 286.382L183.583 286.596L183.765 285.742L184.502 284.247V284.034L184.866 283.82H185.231L184.684 284.247L184.502 285.101L183.954 285.742L184.137 286.382H184.13ZM183.758 287.663L184.123 288.303L183.94 288.944V289.584L184.305 288.944L184.123 288.517V287.663L184.305 287.449L183.94 287.236L184.677 286.809L184.312 286.596L183.947 286.809L183.765 287.663H183.758ZM184.494 287.449V287.663H184.312V288.09L184.677 287.236L184.494 287.449ZM184.677 287.663L184.494 288.303L184.677 287.876V287.663ZM184.859 285.955L185.042 285.528V285.101L184.859 285.528V285.955ZM184.859 287.449L185.042 286.596V285.955L184.859 286.809V287.449ZM185.224 283.82L185.406 284.247L185.224 284.034V283.82ZM185.778 285.955L185.596 287.449L185.413 288.09L185.596 286.382V286.169L185.778 285.955Z" fill="#0C7BD6"/>
<path d="M255.419 286.596L255.054 287.45V288.73L254.136 289.157L254.318 290.011L253.953 290.438L253.217 290.865L252.852 292.36H251.933L251.751 293.214L249.921 295.135L250.468 296.843L248.637 298.551L247.171 301.112L246.07 302.18H244.787L245.334 301.753L246.07 301.326L246.807 300.472L246.624 299.832L248.09 298.551L248.455 297.697L248.82 297.27H248.637L248.09 297.91L247.908 298.551L246.807 298.978L246.442 299.405V300.259L245.895 300.899L244.976 301.539L244.24 302.18V302.393L243.321 303.247V303.888L242.585 304.528L242.22 305.169L241.119 305.382L240.572 306.663L238.742 307.73V308.584L238.005 308.798L236.539 310.079V310.719L235.621 311.36L235.438 311.573L233.79 312.854L233.426 313.494L232.878 314.135L232.142 314.562L231.406 315.202L231.223 315.416L230.859 316.056L231.595 315.202L232.331 314.989L233.068 314.562L234.534 313.281V312.641L235.081 312.214L236.182 311.573L236.364 311.36L237.647 310.719V309.865L238.749 309.438V309.011L239.667 308.371L240.214 307.944L240.397 307.303L240.944 306.45L241.862 305.809L242.045 305.382L242.592 304.955L243.328 304.315L244.429 303.034L244.612 302.607L244.247 304.315L243.7 305.169L242.599 306.023L241.68 307.73L240.579 308.371L240.032 310.079L237.283 310.933L237.465 312.641L236.729 313.708L233.98 314.989L233.797 316.483L232.514 317.124L230.129 318.191L229.028 318.618L228.664 319.899L226.279 319.685L225.178 321.393L224.259 321.18L223.34 322.034L221.875 322.247L215.275 323.742L214.357 324.169H211.425V324.809L211.06 324.169L209.048 323.955H204.65L202.083 323.101L199.881 322.034L197.869 321.393L196.95 320.539L195.484 319.899L194.565 319.259L192.181 318.191L191.634 317.764L190.897 316.91L189.979 316.27L188.878 315.202L188.331 314.562L187.594 314.135V312.641L186.493 312L185.946 310.933L185.21 309.652L185.027 307.944L184.109 307.09V305.382L183.372 304.315L182.453 302.607L182.636 301.753V299.405L182.271 298.551L181.724 297.91L182.089 293.214L181.724 291.719L181.906 288.73L182.271 288.303L182.089 283.393L183.008 279.764V278.697L183.555 278.056L183.919 277.202L184.284 275.281L184.466 274.214L185.013 273.787L185.932 271.438L186.114 270.371L186.661 270.157L187.208 267.382L188.127 266.955L187.945 267.169V268.876L187.58 269.517L187.033 270.371L186.486 271.011L186.121 271.865L185.757 272.506L185.939 273.36L185.757 274.214L185.21 275.068L184.473 275.708L184.291 276.348V277.202L184.473 278.056L183.737 278.697L183.372 279.764L183.737 280.405L183.555 281.259L182.818 282.112L182.636 282.966L182.818 283.82L182.453 284.461V285.955L182.818 285.315L183.001 284.674L182.818 283.82L183.001 283.18L183.365 282.112L183.912 281.472V279.764L184.095 278.91L184.831 278.27V277.416L184.649 276.775L185.567 275.708L186.114 274.427V272.933L187.033 272.292L187.215 271.438L187.58 270.798L187.945 269.73V269.09L188.127 268.236L188.492 267.596L189.593 267.169L189.958 266.101L189.775 265.461L190.876 265.034V264.18L191.241 263.753L192.16 262.899L192.524 262.045L193.071 261.618L192.889 260.764L193.808 260.124L193.99 259.483L194.537 258.843L195.456 258.416L195.821 257.562L196.739 256.494L196.922 255.641L197.84 255L198.759 253.933L199.124 253.292L200.043 252.652L200.225 252.011L201.326 250.73L202.062 250.09L201.515 249.876L201.151 250.73V250.944L200.05 251.371L199.313 252.225V252.652L198.577 253.292L198.212 253.933L197.111 254.146L196.746 254.787V255.427L196.01 256.068L195.828 256.494L194.544 257.135L194.727 257.989L193.99 258.629L193.254 259.056L192.889 260.337L191.97 261.191V261.618L190.869 262.472L191.052 263.326L190.687 263.966L189.951 264.393L189.768 265.247L188.667 266.101L188.485 266.528L188.303 266.742V265.888L189.039 263.539L189.958 263.112L190.14 262.045L190.505 261.832L191.052 260.978L191.599 260.551L191.781 259.697V259.483L192.7 258.416L193.247 257.348L194.53 256.494L196.361 255L196.543 254.146L197.826 252.865L198.373 252.011L200.386 250.73L201.123 250.09L201.487 249.236L203.872 248.382L204.419 247.528L205.52 247.101L206.256 247.315L206.439 246.888L206.986 246.461L208.451 246.034L209.735 245.82L215.78 246.674L216.327 247.101L217.428 247.528L218.165 247.742L219.084 248.596L221.468 249.876L222.015 250.517L223.298 251.584L226.048 253.079V253.292L227.149 253.719L228.979 256.068L229.526 257.348L230.263 258.202L230.81 260.978L230.992 263.753L230.81 265.461L229.891 267.596L229.526 270.157V270.584L228.79 271.438H228.607V272.719L227.324 274.214L224.94 274.641L222.927 274.427L222.008 273.36L220.36 270.798L219.624 268.023L219.259 266.528V265.674L218.894 264.393L218.529 263.326L218.347 262.259L217.982 261.405H217.8L217.253 259.697L217.071 258.416L216.524 257.348L215.423 255.854L214.139 256.281L212.309 257.562L211.944 258.202L210.843 259.056L210.478 260.124H209.56L208.276 262.472V262.685L207.357 262.899H207.175L206.81 263.753L205.892 265.247L204.426 266.315L203.325 267.596L202.588 268.663L202.406 269.09L202.224 270.798L201.123 271.225L200.386 272.292L199.839 272.079V274.641L199.292 275.921L198.556 276.348L198.738 277.202L197.819 277.416L197.455 278.697L196.718 278.91V279.764H196.354L195.617 280.832L194.881 284.247L194.699 285.742L193.78 286.809V288.517L193.233 289.798L192.496 292.573H192.132V293.427L191.767 294.067L191.949 294.281V295.775L191.767 299.618L191.949 303.888L193.05 306.236L193.415 308.798L194.334 309.438L195.435 311.36L196.718 312.427L197.265 313.708L198.914 314.775L204.959 316.91L207.89 317.124L208.809 316.91H210.64V316.697L211.558 316.483H212.842L214.672 315.629H215.037L215.773 314.989V314.562H217.057L218.522 313.921L218.887 312.854L219.434 312.427L219.981 312.214L220.9 310.933L222.366 311.146V310.719L222.913 310.079L224.196 309.011V308.798L225.297 308.584L225.662 307.517L228.046 305.169L228.593 304.742V304.315L229.694 304.101L230.613 302.607L231.714 302.393L231.897 301.539L232.079 301.326H232.626L232.808 300.259H233.545L233.909 299.618H234.828L235.375 298.337L237.206 297.056L238.671 295.562L239.772 294.708L240.32 293.641L241.238 293.214L241.603 291.933L242.339 291.719L242.886 290.438L243.623 289.798L243.987 290.011L244.906 288.73L246.19 287.45L248.392 285.315L249.31 284.674L251.323 282.966L252.242 281.685L253.708 282.539L254.991 283.82L255.356 286.596H255.419ZM188.345 266.955H188.162L188.345 266.742V266.955ZM227.745 318.832L227.562 318.191L227.015 318.618L227.752 318.832H227.745ZM228.846 317.551L228.11 317.978H227.927L228.846 317.764V317.551ZM230.129 316.483L229.028 316.91L228.846 317.337L229.582 317.124L230.129 316.483ZM244.787 302.18L244.605 302.393V302.18H244.787Z" fill="#0C7BD6"/>
<path d="M305.451 267.382V268.876L305.087 269.09L304.35 271.438H302.885L301.601 272.079L301.419 272.719L301.601 273.359L302.52 272.932V272.292H303.439L304.357 271.652L304.175 272.292L303.81 273.786L303.074 275.281H302.527L300.697 276.989L299.231 277.629L299.595 277.416L299.778 276.775H300.697L301.615 275.921H300.514L301.251 275.494V274.854L300.514 275.281V275.921H300.149L298.866 276.562L298.501 277.202L298.866 277.843L299.231 277.629L298.684 278.27L298.137 276.775L297.59 276.989H297.407L296.671 277.416L296.124 278.056L294.476 279.337H293.01L292.828 278.697L292.281 277.629L291.362 275.921V273.573L291.544 271.225L292.091 270.798L291.909 269.73L292.274 269.303L292.091 267.382L292.456 265.461H292.821L292.456 263.966H292.638L293.185 263.112L293.55 259.483L294.286 258.843L293.368 255.64L291.902 255L289.889 255.213L287.876 256.494L285.31 260.124V261.191L284.573 263.112L284.026 263.326L283.661 264.393L283.479 264.82L282.743 265.034L281.824 268.022L280.905 270.798L280.54 271.225L279.993 272.932L279.075 274.854L278.156 278.056L276.69 281.258L276.326 283.393L275.225 283.82L275.589 284.247L275.407 285.101L275.042 285.955L273.212 290.652L272.847 292.146L272.482 293.213L272.665 294.281L271.928 295.135L271.746 296.416H271.381L271.564 297.697L270.645 298.55L270.098 299.191V300.045L269.179 300.685L268.814 302.393L268.632 304.741L267.531 306.449L266.795 308.798L266.43 310.719L266.248 311.786L265.511 312.213L265.694 313.067L265.329 314.989V315.416L264.964 315.629L264.045 318.191L262.944 320.326L262.58 321.607L262.215 322.247L261.114 323.741L260.378 323.955L260.013 324.168L259.466 325.022H257.081L256.717 324.809L254.886 324.595L253.967 323.528L252.684 322.888L252.319 321.82L250.854 320.966L250.671 320.112H250.307L249.76 319.685L249.395 318.831L248.848 316.056L248.301 313.067L248.665 312.213V309.652L248.483 308.584H249.03L248.848 307.517H249.212L249.03 306.663H249.395V304.101L249.76 302.18V300.685L250.124 300.258L249.942 298.55L250.307 297.697L249.57 295.562L250.854 295.775L250.117 293.854L250.854 291.506L251.955 291.292L251.59 288.944L250.854 289.798V287.449L251.59 288.517H252.137L252.319 287.449L252.137 286.809L252.319 286.168L252.684 285.315L252.502 284.461L252.866 283.18L252.684 282.326L253.603 281.899L253.238 280.618L253.785 280.191L254.521 278.91L254.704 276.989L253.238 278.27L253.603 276.775L253.42 276.135H254.521L254.157 274.854L255.076 273.146L253.974 271.865L254.521 271.011L254.886 270.798L254.704 270.157H255.069L254.704 269.303L255.623 268.236L255.44 267.382L255.805 266.955L255.623 266.101L255.987 264.393L255.805 263.326L256.541 262.685V261.831L256.724 260.337H254.893L255.63 259.483L254.529 258.629L255.265 255.64L255.083 253.506L254.536 250.09L254.171 248.168H255.819L257.102 248.595L258.203 248.809L258.568 249.449L260.399 249.876L260.946 250.73L263.148 252.225L263.884 253.079L265.35 254.359L266.086 255.427L267.005 257.562V260.337L267.187 260.764L267.37 262.899L266.823 263.326L267.37 264.393H266.823L267.005 265.674V269.73L267.187 271.865L266.823 272.506L266.64 274L266.276 274.64L267.194 275.281L266.276 275.708L266.458 276.989L265.539 277.629L265.722 278.91V280.831L265.904 281.899L264.621 282.326L265.539 284.461L264.438 286.809L263.337 288.09V291.506L263.702 291.932V293L262.601 293.427L262.965 295.775L261.864 297.27L262.411 296.416L261.128 296.843L261.31 297.697L261.675 297.056L262.04 298.124L261.675 298.55L261.857 303.247L263.323 300.685L263.141 298.55L263.688 298.337L264.052 297.27L264.417 295.775L264.964 294.921L265.147 294.067L265.694 293.854L266.612 291.719L266.43 290.438L266.977 289.371L267.524 288.09V286.809L268.071 285.955L268.618 285.528L268.8 284.034L269.347 282.326L269.894 281.472L270.441 278.91L270.989 278.056L271.353 276.775L272.819 272.719L273.184 271.652V271.011L273.731 269.09L274.832 266.955L275.568 264.607L275.933 263.112L276.669 262.685L277.406 260.124L277.953 259.056L278.689 258.416L279.054 256.921L280.519 254.359L281.256 253.506L281.438 252.652L282.357 252.011L282.904 250.944H284.005L283.64 249.876L284.741 249.236H285.478L286.397 248.168H291.713L292.631 248.382L293.178 249.236H294.644L294.826 249.449L295.563 250.517L297.393 251.371L297.758 252.011L299.406 253.933L300.142 254.359L300.689 255L301.236 256.067H301.601L302.52 257.135L303.067 258.202L303.432 258.843L304.168 259.91L304.533 262.258L305.269 265.461L305.451 267.382ZM252.298 282.966L251.562 281.685L253.028 279.124L253.21 281.899H252.109L252.291 282.966H252.298ZM253.217 270.798L252.116 271.225V269.73L253.399 270.371L253.217 270.798ZM252.67 268.663L252.488 268.236L253.035 269.303L252.67 268.663ZM254.5 265.247L252.67 266.101L253.217 264.607L253.582 264.393L254.5 262.258L255.419 262.472L254.683 262.899L254.5 265.247ZM253.035 268.022L252.852 267.809L253.771 268.236L253.035 268.022ZM262.383 286.382L263.12 286.809H263.302L263.12 285.955L262.383 286.382ZM275.028 268.876L274.846 267.809L274.481 268.236L274.299 268.663V269.303H274.846L275.028 268.876ZM277.406 264.18L277.223 263.326L276.859 263.753L276.312 265.034L276.494 265.888L277.23 265.247L277.413 264.18H277.406ZM280.891 257.135L280.344 255.64L278.696 258.629L277.413 260.337V262.472L278.149 261.404L279.068 260.55L279.615 259.697L280.162 257.989L280.898 257.135H280.891ZM282.175 254.573V253.719L281.628 253.933L280.709 255L281.074 255.213L282.175 254.573ZM283.64 253.719L283.276 253.506L282.911 253.719L282.546 254.359L281.81 255.213H282.546L282.911 254.786H283.276L283.64 254.146V253.719ZM282.357 253.079H283.276V252.011L282.911 251.371L282.364 253.079H282.357ZM294.272 263.326L295.009 262.472L294.462 261.618V260.977L294.826 259.91L294.644 259.056L294.462 257.348L294.279 256.494L294.462 256.067L294.097 255H293.361L294.097 256.067L294.279 256.921L294.462 258.416V260.124L294.279 260.977L293.915 262.045L294.279 262.899L293.732 263.753V264.18L293.915 265.034L293.368 266.101L293.55 266.955L293.003 267.595V268.449L293.185 269.303L292.821 270.157V270.798L292.456 272.506L291.72 273.359L291.902 274.427V273.359L292.638 272.719L293.003 272.079L293.185 271.225L293.368 270.157L293.55 269.73L293.732 268.876L293.185 267.809L293.55 267.168L294.097 266.315L294.462 264.607L294.644 264.18L294.279 263.326H294.272ZM295.738 278.697L296.103 279.124H294.819C294.819 279.124 295.556 278.91 295.738 278.697ZM297.569 278.697L297.204 278.91L296.468 279.124L296.103 278.697L296.285 278.056L296.832 277.843L297.569 278.697ZM297.386 276.989H298.123V277.416L298.487 278.056L298.123 278.483L297.386 277.843V276.989ZM299.953 275.708L299.588 275.067L299.041 275.494L298.677 276.348L299.96 275.708H299.953ZM300.135 274L299.588 274.854L300.135 275.494V274ZM301.419 275.281H302.155L302.702 274.64L302.885 273.786V272.506L302.148 273.786V274.427L301.412 275.281H301.419ZM304.35 271.652V271.438H304.533L304.35 271.652Z" fill="#0C7BD6"/>
<path d="M362.258 284.034L361.34 284.247L361.522 285.101L360.421 285.742L361.34 286.169L360.975 288.303L359.874 290.225L359.692 291.292L359.145 291.719V293.854L359.692 295.135L358.773 295.562L358.591 297.27L358.043 297.697L358.226 299.191L357.307 300.899L356.024 303.674L355.841 304.955L355.105 306.449L354.186 307.517L352.538 308.371L352.72 309.438L351.802 310.933L351.437 312.854H350.89L350.708 313.708L349.242 314.989L348.877 315.629L348.695 316.483H348.148L347.965 317.551L347.601 318.191L347.236 318.618L346.5 319.258H345.953L345.588 319.899L345.041 320.539L343.393 321.393H343.211L342.663 322.674L340.279 323.955H339.36L336.246 325.022L334.044 325.236L330.012 325.022L329.465 325.449L328.546 324.382L324.513 323.315H324.149L323.048 322.461L321.217 321.82L320.298 321.393V320.539L319.015 320.326L318.65 319.472L317.549 319.258L315.901 316.697L314.071 314.348L313.152 311.146H312.97L312.423 310.292L311.686 308.798L311.139 304.315L310.774 304.101L310.957 303.461L310.592 302.82L310.774 302.18L309.856 296.629L310.22 295.775L310.038 294.494L310.585 293.64L310.403 290.438L310.95 288.09V286.382L311.314 286.169L311.861 285.101L312.226 280.831V280.405L313.145 279.978L313.327 277.843L313.874 276.989L313.692 275.921L314.057 275.494L314.239 273.787H314.975L316.076 270.798L317.178 268.022L318.826 266.528L319.19 264.82L320.109 264.18L320.474 263.112L321.392 260.978L322.676 260.551L322.493 260.978L322.129 261.618L321.582 262.472L321.217 263.112L321.035 263.966L320.67 264.393L320.305 265.461L319.758 265.888L319.022 266.742L318.657 267.596L318.475 268.236L318.11 269.09L317.746 270.371L317.199 271.011L316.652 271.865L316.834 272.719L315.733 274L315.368 274.64V275.708L314.267 276.989L314.632 278.056L313.895 278.697L314.078 279.551L314.814 278.91V277.843L315.361 277.202L315.543 276.348L315.726 275.921L316.827 274.214L316.462 273.36L316.827 272.933L317.928 271.865V271.225L318.11 270.798L318.847 269.73L319.394 269.303V268.449L320.13 267.596L319.765 267.169L320.502 266.101L321.049 265.674V265.034L321.413 264.393L322.15 263.539L322.515 262.685L323.251 262.258L323.433 261.405L323.616 260.764L324.352 260.124L325.271 259.697L325.088 258.843L326.189 258.416L326.372 257.775L327.291 257.135L327.473 256.494L327.838 255.64L328.574 255.214L329.675 254.787L330.222 253.933L330.769 253.719L331.316 253.079L331.681 252.438L332.417 252.011L333.336 251.584L333.701 250.944L334.619 250.303L334.802 250.09L335.72 249.663L336.639 249.022H335.356L334.809 249.449L333.525 249.876L332.789 250.09L332.053 250.944L330.951 251.584L330.769 252.011L330.222 252.652L328.939 253.079L328.392 253.719V253.933L327.655 254.787L326.919 255.427L326.737 256.067L325.818 256.708L325.635 257.135L325.088 257.775L324.352 258.416L323.987 259.27L323.069 260.337L322.886 259.697L323.251 259.056L324.352 257.775L324.17 257.135L325.453 256.281L326.189 255.214L326.737 254.573L328.02 253.719L329.303 252.438L330.222 252.225L330.958 251.157L332.424 250.09L334.626 248.596L336.639 247.955L338.287 248.169H342.138L346.352 249.663L348.919 250.73L351.121 252.225L352.223 252.865L353.688 253.506L354.235 254.146L355.701 255.427L357.714 257.562L358.633 259.697L357.349 260.337L352.952 258.202L349.838 257.135L345.805 257.989L343.239 259.697L341.773 260.978L340.125 262.045L340.307 262.899L338.841 263.539L337.193 265.674L335.545 267.596L335.18 268.663L334.262 269.09L333.715 269.303L333.532 270.371L332.067 273.146L331.702 273.36L330.418 276.562L329.871 277.202L328.406 280.618L328.223 281.685L327.487 283.82L326.386 285.955L325.839 287.876L324.92 288.944V289.584L325.102 291.292L324.738 293.213L324.555 294.494L324.008 297.27V301.112L324.373 304.955L323.826 305.809L324.373 309.225L323.637 309.865L324.373 312.854L326.204 316.697L327.305 317.764L329.689 318.618L330.608 318.191L330.79 317.551L331.709 317.337H332.256L332.621 316.697L333.722 316.483L334.086 315.629L334.823 315.416L335.559 314.989L336.66 313.921L336.478 312.854L337.761 312.427L338.126 311.573L339.409 311.146L341.057 307.303L341.976 306.876L342.523 305.382L344.171 303.247L345.09 301.539L345.455 301.112L345.637 300.472L346.184 300.258V298.124L347.285 297.483L347.832 295.775L348.751 294.494V292.146L349.67 291.292L350.034 288.944L349.852 287.663H350.771V285.315L351.318 284.461L351.683 283.607V279.124L352.419 275.494L352.054 270.157L351.872 269.09L351.69 268.236L351.325 267.169L350.041 264.393L350.588 263.539L351.325 263.326L352.426 262.899L353.527 263.326L355.357 264.18L358.471 266.742L359.572 268.022L360.119 269.517L361.585 274.427L362.132 278.483L361.95 279.124L362.132 279.764L362.314 282.753V284.034H362.258ZM314.064 298.124L313.517 294.281V292.36L312.051 291.292V294.708L311.686 294.921L312.605 298.551L311.869 302.607L312.605 303.888L313.152 304.742L313.888 306.876L313.524 302.82L312.977 298.124H314.078H314.064ZM312.78 281.685V282.112L313.517 281.685L313.152 281.045L312.787 281.685H312.78ZM323.041 260.551H322.676L322.858 260.337H323.041V260.551ZM343.204 320.966H342.285L341.548 321.607V322.247L340.812 322.461L339.164 323.101L338.617 323.742L337.151 323.955L335.503 324.596L336.969 324.382L337.516 324.169L338.252 323.955L339.536 323.528H339.9L341.001 322.888L341.92 321.82L342.839 321.393L343.204 320.966ZM358.78 272.292L360.063 271.652L359.516 270.584L359.152 270.157L358.233 268.876V270.157L357.686 271.011L358.787 272.292H358.78ZM358.78 276.135L358.598 274.427V273.146L358.05 272.079L358.233 273.787V275.921L358.78 276.135ZM359.516 274.427L360.063 273.573L359.881 272.719H358.962L359.509 274.427H359.516ZM360.428 278.27L360.246 276.989L359.509 276.562L359.692 278.91L360.428 278.27Z" fill="#0C7BD6"/>
<path d="M457.379 307.303L457.196 308.797L456.831 310.719L456.285 312L455.92 313.067L455.373 313.708V315.202L453.171 317.337L452.252 318.831L450.968 319.472V320.539L450.05 322.674L447.301 324.382L446.936 325.022L445.835 326.517V326.944L445.098 327.371L443.45 328.438L441.066 329.932L440.701 330.146L439.782 330.359L439.235 331L437.405 330.573L434.109 330.786V330.359H433.19L431.177 329.932H431.914L433.379 330.146H434.298L434.116 329.932H433.197L432.278 329.719L430.812 329.292L429.894 329.078L429.529 328.865L428.063 328.438L427.516 328.011L427.152 327.797L426.233 327.157L424.585 326.73V326.517L423.119 326.09L422.937 325.236L422.018 324.809L420.917 324.382L420.18 322.674L419.633 322.247L418.897 321.393V320.539L417.978 319.685L418.161 318.831L417.424 317.977L416.141 315.629V315.842L416.506 316.91L416.688 317.55L416.506 318.404L417.607 319.258L417.789 319.899L418.154 320.966L418.518 321.393L418.701 322.46L419.248 323.101L420.166 323.955L420.349 324.168L418.518 322.887L417.417 320.539L415.769 318.404L415.404 315.202L414.857 314.775L414.493 311.786L414.675 306.663V303.247L415.222 302.82L414.675 299.618H415.411L415.047 297.483L415.411 297.056L415.594 295.135L415.959 294.921V293.854H416.506L416.323 292.359L416.87 291.719V291.078L417.053 288.944V287.449L417.417 287.236L417.964 286.168L418.147 285.101H418.511V283.82L418.876 283.18L419.423 282.112L419.241 280.831L419.605 280.618L419.97 278.696L421.253 274.854L421.436 272.505L422.719 270.797V269.09L423.456 265.674L424.003 263.539V261.404L424.367 260.977L424.732 259.696L425.279 257.988L425.644 257.562L425.461 256.281L425.826 255.64V254.786L426.008 253.932L425.461 252.224H423.813L422.895 253.292L421.611 255L419.963 255.854L419.044 257.135L418.308 258.629L417.572 259.696L417.024 261.191L416.478 262.258H416.113L414.829 263.326L414.093 264.82L413.546 266.741H413.181L412.817 267.595L412.999 268.236L412.08 269.73L409.878 272.932V274L409.142 274.213L408.595 274.854L408.048 275.921L408.23 277.202L407.683 277.842L407.501 279.55L406.582 281.472L405.845 281.899H405.298L405.116 282.966L402.732 287.449L401.448 290.865L400.529 293.64L399.611 295.562L398.874 296.629H398.327V295.775L398.51 294.921L398.874 294.067L399.239 293.427L400.158 292.786L400.522 291.719V291.292L401.259 290.224V289.584L400.522 290.438L400.34 290.865L399.604 291.932L399.786 292.573L399.239 293.427L398.874 293.854L398.51 294.921L398.145 295.348V296.202L397.044 296.842L397.409 297.696L397.956 297.269L397.773 298.123L397.591 298.337L397.226 297.91L396.125 299.191L396.49 300.045L396.308 300.472L396.49 300.258L397.037 299.191L397.402 298.764L397.037 299.831V300.899H396.49L396.672 303.674L395.389 304.528L395.206 305.382L394.47 306.022L393.923 307.944L393.741 310.078L392.64 311.146L392.093 312L391.728 312.64L391.363 312.854V312.213L391.181 312.64L390.634 313.281L390.087 313.494L389.722 314.562L389.904 314.988L389.54 315.842L388.439 316.483L388.803 317.337L388.621 318.404L388.439 319.258L388.074 319.685L387.709 320.326L388.256 320.966L388.439 320.539L389.175 319.899L388.81 322.033L386.426 322.46L385.689 323.528L383.677 323.741L380.009 323.528L378.725 322.247L378.543 321.82L377.077 320.539V319.899L376.341 318.831H375.604L375.422 317.764L374.875 315.629L372.862 310.078L373.409 306.449V301.753H373.592L373.774 300.899L373.227 298.123L373.774 297.056H374.321L374.139 295.348L375.057 294.921L374.875 291.932L375.24 288.944L375.976 285.955V283.393L376.523 282.753L376.888 281.685L376.706 280.404L377.624 279.337V277.842L377.807 277.202L378.725 276.562L378.908 274.854L379.272 273.573L379.819 273.359V271.651L380.366 269.09L380.731 267.168H380.913L381.461 266.314V264.393H381.825L382.19 263.539L381.825 261.831L382.19 260.977L382.555 260.764L382.737 258.842L382.919 257.988L383.284 256.708L383.649 254.573L384.013 251.797L382.73 246.674L386.763 247.314L390.43 249.663L392.815 252.438L393.362 254.573L394.645 256.708V259.483L394.463 262.045L393.727 263.326L393.18 265.674L393.362 267.595V268.449L392.815 268.876L392.633 270.797L391.531 271.224V272.292L390.984 274.427L390.437 275.708L389.89 277.202V278.056L389.526 280.191L388.607 281.045L388.789 281.685L388.607 282.539V284.033L388.06 284.887L387.695 287.236L387.878 287.449L387.513 288.09L386.966 290.224V291.932L386.047 292.359L385.682 293.427L385.318 295.135L385.135 296.629L384.588 297.696L383.852 301.753L383.67 303.46V304.741L383.305 306.449L382.94 307.517V309.865L382.758 310.719V313.708L384.771 309.865L386.419 306.663L387.338 303.674L388.621 301.539L388.439 300.685L389.357 299.404V298.123L390.276 296.415L390.641 295.348L391.377 294.708L392.114 292.573L392.478 291.078H393.025V290.224L393.39 288.303L394.491 286.809L395.227 285.314L395.964 283.393L397.977 279.764L399.078 276.988L400.908 274.213L401.645 272.078L402.009 271.865L402.374 271.438L403.11 269.73L404.576 268.022L404.941 265.887L406.406 263.753L407.325 262.045L408.426 259.483L410.439 256.281L411.54 254.786L411.358 254.359L412.094 254.146H412.459L412.824 253.292L414.107 252.651L415.39 250.944H415.755L416.302 250.517L417.221 249.876L417.768 249.663V248.595L418.504 247.741L419.788 246.887L421.253 246.247L421.436 246.033L423.266 245.393L425.279 244.966L425.826 244.539L426.008 244.966H428.021L428.204 245.393L430.216 245.82V246.46H432.047L432.783 247.314L435.35 248.595L436.269 250.09L437.735 252.438H437.187L437.005 252.224L436.641 251.371L435.539 250.517L435.357 250.09L434.621 249.449L433.702 248.809L432.966 248.382L431.682 247.741L430.763 246.674H430.581L431.682 247.741L432.229 248.595L433.513 249.236L434.249 249.663L434.796 250.73L434.978 251.157L435.525 252.011L435.708 252.865L436.809 253.505L436.626 254.573L437.174 255.427V256.494L437.72 257.135L438.085 256.494L438.268 256.921L438.45 257.562L438.085 258.202V259.696L437.903 262.472L437.356 263.326L437.174 264.393L436.626 264.82L436.809 266.101H436.444L436.079 267.168V268.449L435.532 270.371L434.985 272.719L433.884 276.348L433.52 278.269V280.618L432.601 283.393L431.5 283.82L432.419 284.674L431.5 285.101L431.682 286.809L432.229 288.09L431.864 288.303L430.581 290.011L430.216 290.224L430.399 291.719L429.298 294.281L429.662 295.988L428.926 296.415L428.744 298.123L428.007 302.606L428.554 302.82L428.19 303.247L428.372 304.528L427.271 304.955L427.089 308.797L428.19 316.269L430.574 320.326L433.323 322.033L436.437 323.101H440.834L441.199 322.46L442.482 322.247L443.766 321.606L444.867 321.179L445.414 320.326L446.515 319.685L446.697 319.258L447.981 318.831L448.346 317.977L449.082 317.764L450.001 316.483L450.737 315.629L451.102 314.988L452.385 314.135L452.567 312.854L453.486 312.64L455.134 310.078H455.499L455.864 309.224L457.329 307.303H457.379ZM382.604 263.539L383.151 264.393L383.333 263.326L383.515 260.55L384.252 259.91L383.705 259.269L384.069 257.988L383.887 256.708L383.522 258.629L382.975 260.337V263.112L382.611 263.539H382.604ZM383.887 256.067L384.252 255.427L384.799 253.292L384.434 252.224L384.252 253.719L383.887 256.067ZM385.171 256.281L384.623 257.562L384.441 258.842L384.988 259.91L385.907 259.483V258.415L385.171 256.281ZM391.216 313.067L391.398 313.921L391.034 314.988V316.056L390.669 316.696L390.122 316.91L389.939 317.977L389.392 318.831L389.21 319.685V319.899L388.845 318.831L389.028 317.977L389.392 317.337L389.939 316.696L390.304 316.056L390.487 314.775L391.223 314.348V313.067H391.216ZM391.216 312.854H391.398L391.216 313.067V312.854ZM395.802 301.539L395.985 301.112L395.62 301.326L395.256 302.179L394.708 302.82L394.161 303.674L394.344 304.528L393.797 305.382L393.614 306.022L393.067 306.663L392.885 307.517L393.067 308.157H393.25L392.885 307.517L393.986 306.876V306.022L394.533 305.168L394.351 304.528L395.087 303.674L394.905 303.247L395.452 302.179L395.817 301.539H395.802ZM397.451 298.55L397.633 298.337V298.55L397.451 298.764V298.55ZM397.998 296.629H398.362L398.18 297.056L397.998 297.269V296.629ZM403.131 285.741V285.528L402.584 285.955L402.037 286.595L402.22 287.449L401.673 288.303V288.517L402.037 288.303L402.22 287.449L402.956 286.809L403.138 285.741H403.131ZM422.193 325.236V326.09L421.457 325.236L420.72 324.595L420.356 324.168L420.903 324.595L422.186 325.236H422.193ZM430.988 329.932H431.17L429.157 330.359L428.239 329.078H426.226V328.651L424.942 328.011L423.477 327.584L422.74 326.944L422.193 326.303V326.09L422.558 326.303L423.659 326.73L424.942 327.371V327.584L426.591 328.651L427.509 328.865L428.61 329.078L429.347 329.505L430.448 329.719L430.995 329.932H430.988ZM437.223 252.438L437.587 253.078V253.292L436.851 252.438H437.216H437.223ZM437.405 253.932L437.587 253.292L437.77 254.573L437.405 253.932ZM437.952 255.64L437.77 254.573L438.134 255.64L438.317 256.494H438.134L437.952 255.64ZM455.183 314.775L455.001 313.921L454.636 314.775L454.272 315.415L453.353 316.696L454.454 315.842L455.001 315.202L455.183 314.775ZM455.73 312.213L455.183 313.494L455.73 312.854V312.213Z" fill="#0C7BD6"/>
<path d="M486.518 326.731L483.404 326.944L482.857 326.731H481.392L479.561 326.304L478.825 326.517L478.46 326.731L477.359 326.304L476.812 325.45L475.711 325.236L474.792 324.809L474.056 324.169L473.691 323.528L470.395 323.101L468.382 321.393L468.929 321.18V320.326L467.646 319.686L467.281 318.832L466.18 318.191L465.261 317.978L465.079 316.91L462.512 315.202L465.261 317.978L464.525 318.832L464.343 319.259L463.978 318.832L462.877 318.191L461.958 317.978L461.776 317.337L461.229 316.483L460.492 315.843L460.128 314.989L459.391 314.135L458.844 313.708L458.479 312.214L457.933 309.865L456.467 306.023L455.183 301.966L454.082 296.629V293.427L454.819 292.573L454.272 291.079L454.636 290.011L454.454 288.944H454.819L454.636 287.023L454.819 285.528L454.636 283.82L455.001 283.393V282.753L455.548 280.405L455.73 279.978L455.913 279.124H456.277V275.495L456.095 274.641H457.014L457.933 272.933L458.479 271.225L458.297 270.371L458.662 269.517L459.027 269.09L458.844 267.596L460.31 266.315L460.857 264.82L462.505 262.899V262.045L463.606 260.764V258.416L464.89 257.562L465.437 257.349V256.922L466.355 256.281L467.456 255.427L467.821 254.146L469.287 253.719L469.105 252.438L470.935 250.731V250.09H472.036L473.319 249.663H473.867L473.684 249.023L474.785 248.596L475.704 247.955L476.987 246.888L478.271 246.034L479.007 245.82L481.209 245.607L482.493 245.82L485.607 246.461L486.89 247.315H488.903L491.47 249.663H492.935L493.672 249.45L495.32 252.011L496.056 252.865L496.421 253.719L497.522 254.146L498.805 258.202L499.17 262.472V264.82H498.069L498.251 266.101L498.069 268.023L496.968 269.304V271.865L495.32 274L492.935 275.281L493.118 277.202L492.017 278.056L490.004 279.978L487.255 281.259L487.437 282.326L486.518 282.54L484.87 283.393L481.939 284.247L479.007 284.034L478.825 285.101L474.245 284.247H473.698L468.382 283.82L467.463 282.753L465.815 281.899L465.633 287.236V289.798H464.897L464.532 290.652L465.815 295.775V298.978L465.998 300.472L465.633 300.686L465.815 301.753L466.552 301.326L466.916 303.247L466.552 304.101L467.099 304.742L467.835 305.382L468.754 309.225L469.301 310.079L470.767 310.933L471.503 312.854L472.786 313.495L474.617 314.775L475.536 315.629H476.819L477.366 316.483H479.197L481.763 316.91L488.727 316.483L490.558 315.629H492.024L492.76 314.775H494.226L495.509 313.708L496.056 313.068L496.793 312.427L498.258 312L499.542 311.146L499.724 310.933L500.461 310.506H501.379L501.197 310.079L503.027 308.584L503.392 308.371L503.757 307.304H504.122L505.223 306.45L508.89 302.18L509.992 301.54L510.174 300.686L511.275 300.472L511.093 299.405L511.829 298.764L513.112 297.697L513.659 296.202H514.396L514.761 295.348L516.044 293.854L516.409 292.573L517.145 292.146V291.719L517.692 290.652L518.428 289.798L518.793 288.304L519.34 287.663L519.705 286.596L520.624 286.169L521.171 284.888L522.454 284.247L523.373 283.82L523.555 283.393L524.839 283.18L525.021 283.82L524.839 285.528H524.292L523.008 287.023L523.373 288.944L522.454 289.371L522.636 290.438L522.089 290.865L521.171 291.079L520.988 294.068L520.624 295.135V295.775H519.523L518.786 296.202L518.05 296.843L517.503 297.056L516.766 298.978L516.219 299.832L515.301 300.686L517.131 301.54L515.665 301.966L514.564 302.18L515.111 305.169V307.304L514.01 308.798L513.645 310.079L512.544 310.933L512.18 312.427L509.978 313.708L508.694 313.922L508.147 314.775H506.499L506.317 315.629L503.02 319.045L501.19 320.113L500.454 320.753L499.907 321.82L498.988 322.247L498.805 323.101L497.34 323.315L496.421 323.955L495.138 324.382L495.502 325.877L492.388 326.304L490.004 326.944L487.991 327.584L486.525 326.731H486.518ZM458.662 274.214L459.581 272.506L459.945 270.157L461.776 266.742L462.512 264.393L463.796 262.259L465.444 260.551L465.626 258.843L464.16 260.978L462.512 262.686L461.229 265.888L460.128 268.023L458.844 271.011L458.479 272.506L457.933 274.854L458.669 274.214H458.662ZM465.991 319.686L467.821 320.54L468.003 321.393L465.991 319.686ZM471.489 277.629L472.772 277.202V276.775L476.805 276.135L477.541 275.068L478.278 274.854L479.379 274L479.744 273.36L481.209 272.719L481.027 271.865L482.675 271.011L483.959 268.45L485.06 268.023L485.424 266.955L486.343 266.315V265.034L486.89 263.54L487.072 261.618L486.708 259.27L486.89 258.416L486.154 255.641L484.87 256.068L484.134 253.933L483.033 253.719L483.215 254.787L481.749 254.146L481.013 255L479.547 255.641L479.73 256.495L478.629 256.922L478.446 258.416L477.527 259.91L475.143 262.472L474.407 262.899L473.123 265.034L472.758 266.315L472.576 267.169H471.657L472.022 269.09L470.921 269.731L469.82 271.011L469.455 271.225L468.908 272.079L467.807 275.068V276.349L469.273 277.843L471.475 277.629H471.489ZM489.085 326.09L492.753 325.236L493.489 324.596H492.753L492.017 325.023L490.369 325.45L489.268 325.663H487.619L486.154 325.45L484.506 324.382L482.675 324.596L481.209 324.809H479.744L477.913 324.382L477.177 323.955L475.893 323.528L476.812 324.382L478.278 324.809L479.197 325.236H481.399L482.864 325.663H485.067L487.816 326.09C488.18 326.09 488.917 326.304 489.099 326.09H489.085ZM495.131 269.517L494.766 268.663L495.502 267.596L494.955 266.955L494.219 267.809L493.482 268.877L493.847 269.944L494.584 271.011L495.131 269.517ZM496.596 266.955V264.607L496.779 263.753L496.596 262.899L496.049 263.326L495.867 263.753L495.685 264.393L495.138 264.607L495.502 266.315L495.685 267.382L496.421 267.596L496.603 266.955H496.596ZM515.294 303.674V303.247L515.658 302.607H516.023L516.388 302.18H517.124L516.388 303.034L516.023 303.674L515.476 303.888L515.294 303.674ZM515.476 305.382L515.658 304.315H516.577L515.841 306.023L515.476 305.382ZM516.759 302.82L517.678 302.18L518.225 302.393L517.306 303.461L516.57 303.674L516.752 302.82H516.759ZM517.86 300.259L518.597 299.405L519.333 297.697L519.88 296.843L520.799 295.989L521.535 294.922L521.353 297.056L520.07 298.764L518.604 301.753L517.867 300.259H517.86ZM521.521 292.146L522.258 291.506L522.44 292.36L521.893 293.641L521.528 294.068V292.146H521.521ZM523.906 288.517L524.088 288.09H524.453L524.635 288.731L524.453 289.157L524.088 289.584L523.906 288.517Z" fill="#0C7BD6"/>
<path d="M339.632 237.67C368.546 241.48 372.259 222.97 373.111 214.062C373.206 213.049 372.154 212.069 370.818 211.915C329.693 207.081 328.567 222.32 327.547 236.085L327 243.484" fill="#3D7E37"/>
<path d="M339.632 237.67C368.546 241.48 372.259 222.97 373.111 214.062C373.206 213.049 372.154 212.069 370.818 211.915C329.693 207.081 328.567 222.32 327.547 236.085L327 243.484" stroke="#21531C" stroke-linecap="round" stroke-linejoin="round"/>
<path d="M329.188 230.711C329.188 230.711 331.565 220.019 350.602 225.635" stroke="#21531C" stroke-linecap="round" stroke-linejoin="round"/>
</svg>
