<svg width="160" height="25" viewBox="0 0 160 25" fill="none" xmlns="http://www.w3.org/2000/svg">
<path d="M50.2032 9.50204C10.9853 10.6213 0.398381 3.37285 0.0362544 1.53389C-0.204625 0.310654 0.874478 -0.559292 1.669 0.548013C1.82197 0.7612 1.60497 1.18759 1.98915 1.53389C9.77342 5.33648 16.5707 5.85177 49.4989 6.67723C77.0315 7.36744 153.611 -9.81801 159.597 8.40922C164.758 24.2012 119.003 26.9385 110.935 23.9188C109.11 23.2358 106.753 22.8186 106.805 21.9735C106.857 21.1284 107.305 21.1059 108.534 21.4938C127.102 23.226 155.138 20.3213 156.428 9.92844C158.015 -2.86036 104.649 5.6995 50.2032 9.50204Z" fill="#5496EF"/>
</svg>
