<svg width="1337" height="16" viewBox="0 0 1337 16" fill="none" xmlns="http://www.w3.org/2000/svg">
<path d="M12.6279 0.532076C20.0564 0.474233 29.7951 0.563721 37.1953 0.681556C39.5146 0.718123 38.3398 0.847112 39.9408 0.878517C43.072 0.939908 45.9895 0.885077 49.0836 0.958201C50.109 0.983105 48.8317 1.18813 49.9069 1.20946C55.7986 1.325 61.3739 1.2964 67.3425 1.37101C96.7428 1.73943 125.641 2.04539 155.399 2.42589C165.21 2.55102 177.136 2.86289 187.272 2.88783C188.455 2.89054 187.751 2.69878 187.977 2.68599C191.51 2.49131 190.332 2.85069 192.636 2.92498C201.783 3.21892 211.956 3.3499 220.762 3.37983C224.508 3.39206 220.756 2.98292 224.525 3.23177C224.787 3.24867 223.835 3.43335 224.862 3.46607C227.191 3.53985 231.611 3.55627 233.416 3.5929C236.895 3.66446 237.471 3.66926 240.762 3.71026C245.261 3.76804 250.611 3.92886 255.439 3.94223C256.469 3.9445 255.107 3.72763 256.751 3.71316C258.396 3.69874 262.747 3.76792 264.213 3.83284C265.68 3.89778 265.053 4.04791 265.312 4.08716C267.445 4.41779 272.483 4.05606 273.13 4.05343C284.939 4.01783 295.062 4.38116 306.144 4.5136C314.558 4.61365 323.555 4.64148 331.561 4.74644C341.098 4.87224 349.18 5.07439 358.446 5.16021C359.424 5.16949 358.281 4.92077 359.475 4.93161C372.164 5.0469 384.765 5.209 397.397 5.49696C398.664 5.52603 397.029 5.71646 398.294 5.75787C406.043 6.00738 418.303 6.53394 422.914 5.67444C428.164 5.75825 434.537 5.85114 439.232 6.0728C442.26 6.21545 439.316 6.41622 443.037 6.35119C443.876 6.33674 442.787 6.13013 444.045 6.12337C449.343 6.09508 455.13 6.20507 460.371 6.1422C461.438 6.12895 461.148 5.94976 461.45 5.92014C463.99 5.68099 468.212 6.13786 469.133 6.17525C476.146 6.45551 481.269 6.39762 487.804 6.44228C489.32 6.45267 487.529 6.20433 488.988 6.20575C496.556 6.21615 504.395 6.27705 511.805 6.41515C513.453 6.44641 511.936 6.6423 512.724 6.66759C516.196 6.7764 516.968 6.397 520.298 6.49253C521 6.51214 520.604 6.68401 520.732 6.70354C522.736 7.01005 524.479 6.59264 524.995 6.58509C531.517 6.47979 535.685 6.93384 541.987 6.88561C542.74 6.87934 541.041 6.65626 543.16 6.65198C557.277 6.62348 572.207 6.68274 586.182 6.85285C588.355 6.87897 586.804 7.04439 586.94 7.06465C589.169 7.38116 590.611 6.95512 591.319 6.93875C596.908 6.82064 602.129 7.1735 605.926 6.66376C629.596 6.81986 653.157 6.49749 676.632 6.89936C676.93 6.90395 676.396 7.1146 676.991 7.12286C684.161 7.22438 682.784 6.90185 687.527 6.49245C688.722 6.38964 692.358 6.86141 692.68 6.89583C693.852 7.02276 692.638 7.3374 693.03 7.36157C696.278 7.5509 695.746 6.52174 700.127 6.51008C700.264 6.51144 699.689 6.70262 700.057 6.72052C701.199 6.77677 702.332 6.69841 703.449 6.76074C706.008 6.90502 706.921 7.40337 710.828 7.10116C711.322 7.06195 710.565 6.47955 714.476 6.49617C716.036 6.50336 722.937 6.47337 724.872 6.50542C726.804 6.5375 725.478 6.72983 725.616 6.73758C730.822 6.97107 728.849 7.0802 731.458 7.44104C734.067 7.80043 733.341 6.92636 734.404 6.82526C735.469 6.72445 739.286 6.91797 740.224 6.98641C741.162 7.0549 739.993 7.17833 740.827 7.21612C746.354 7.46267 743.251 6.77338 745.072 6.62842C749.364 6.28515 752.711 6.92387 756.642 6.97423C757.705 6.98781 756.837 6.84276 757.784 6.82569C761.535 6.76004 763.791 6.95502 768.058 6.75407C768.756 6.72133 772.204 6.31839 774.438 6.59707C774.755 6.63728 773.857 6.80246 775.456 6.83297C777.844 6.87881 782.147 6.89847 784.714 6.8348C786.609 6.78772 784.435 6.52896 786.821 6.60297C787.881 6.63602 785.917 6.79947 787.909 6.84854C789.891 6.89766 794.956 6.87162 796.884 6.85882C798.808 6.84594 797.754 6.64756 797.91 6.63333C798.85 6.55162 802.543 6.43974 802.869 6.4387C819.329 6.35 834.509 6.62878 850.534 6.44776C851.792 6.43384 850.953 6.22396 851.145 6.21964C855.451 6.11186 852.058 6.69384 855.067 6.87094C854.63 6.43965 856.406 6.5105 859.439 6.44995C860.9 6.42042 860.103 6.25613 860.237 6.23838C862.403 5.97431 863.913 6.2968 864.302 6.36242C865.739 6.60381 867.299 6.30447 868.277 6.46572C869.254 6.62573 867.008 6.87903 869.917 6.86324C870.732 6.70463 868.571 6.30886 870.779 6.23356C879.11 5.94892 894.664 6.19775 901.364 6.20066C908.05 6.20367 910.21 6.1653 914.106 6.20375C921.144 6.27328 918.563 5.9843 922.933 5.82691C927.315 5.66946 925.187 6.41879 925.818 6.57494C926.437 6.73108 927.112 6.5644 927.881 6.64828C928.648 6.73216 926.989 6.84781 928.792 6.87242C930.597 6.897 935.529 6.59183 936.167 6.42265C937.518 6.06427 935.293 5.70469 940.068 5.81287C940.343 5.81933 939.453 6.01788 940.504 6.03275C948.856 6.14449 957.531 6.11427 965.872 6.20883C967.019 6.22214 965.995 6.44316 966.662 6.45336C973.615 6.56021 971.128 6.20666 974.936 5.78413C974.083 6.32734 976.192 6.64775 981.468 6.62711C984.639 6.61491 984.092 6.38182 986.143 6.20656C986.758 6.15374 989.003 6.30539 989.409 6.19278C990.749 5.82464 988.633 5.42875 994.073 5.56577C994.312 5.57237 993.553 5.77399 994.378 5.7823C999.709 5.83701 1000.34 5.45538 1006.11 5.3839C1010.62 5.32783 1018.66 5.52338 1023.8 5.53852C1023.69 6.14536 1028.55 5.98534 1030.52 5.55875C1033.86 5.56141 1037.46 5.52226 1040.69 5.56627C1041.8 5.58122 1041.07 5.7599 1041.21 5.77827C1043.36 6.06668 1044.81 5.65377 1045.53 5.63477C1053.33 5.44664 1059.7 5.72838 1067.15 5.39657C1067.41 5.38464 1067.84 4.96167 1069.83 5.26109C1069.96 5.28177 1067.5 5.48343 1071 5.48398C1074.51 5.48456 1081.12 5.6838 1085.99 5.46948C1087.16 5.41785 1090.14 5.06423 1092.53 5.32211C1092.85 5.35716 1092.5 5.47931 1092.96 5.54475C1094.45 5.75319 1095.26 5.32432 1097.01 5.67929C1098.76 6.03426 1102.39 6.29118 1107.3 6.02331C1107.46 6.01547 1108.62 5.67369 1110.16 5.6733C1112.63 5.67297 1116.12 5.73044 1118.7 5.71895C1119.93 5.71332 1119.14 5.50664 1119.35 5.50204C1127.64 5.3548 1133.53 5.52097 1142.4 5.57232C1144.03 5.58214 1148.7 5.28098 1151.85 5.49676C1155.31 5.733 1151.76 6.77277 1159.71 6.50276C1162.92 6.39476 1166.97 5.07719 1172.73 5.73642C1183.9 5.53613 1194.24 5.85427 1205.44 5.58775C1205.94 5.57592 1207.54 5.20784 1208.72 5.20999C1210.48 5.21388 1211.45 5.38187 1212.7 5.39018C1217.96 5.42931 1222.78 5.27318 1227.85 5.28544C1229.78 5.28975 1229.1 5.46712 1231.4 5.47238C1233.7 5.47751 1235.23 5.24274 1238.34 5.34889C1240.69 5.42986 1243.04 5.89938 1246.15 5.94927C1246.27 5.48176 1248.41 5.48763 1252.22 5.3582C1252.95 5.3331 1252.17 5.17169 1252.51 5.15143C1253.92 5.06537 1255.23 5.19815 1256.56 5.10488C1256.89 5.08247 1256.9 4.92286 1257.17 4.89554C1259.43 4.65709 1263.16 5.01086 1263.8 5.07252C1266.25 5.30657 1267.4 5.09753 1269.28 5.18864C1271.16 5.27977 1268.35 5.40009 1270.54 5.4541C1275.09 5.5658 1280.94 5.53375 1285.56 5.53692C1287.4 5.5372 1286.14 5.32531 1286.41 5.3204C1290.22 5.26295 1294.07 5.48671 1296.18 5.06095C1298.83 6.15643 1298.48 4.95282 1303.93 5.1696C1304.36 5.18715 1304.91 5.70572 1303.26 5.78273C1301.61 5.85968 1299.11 5.69893 1296.83 5.81919C1296.29 5.84739 1293.19 6.33579 1292.76 6.36558C1289.45 6.59829 1288.98 5.82343 1288.8 5.78097C1286.81 5.32302 1283.03 5.85035 1282.03 5.88756C1277.46 6.05791 1273.58 5.95329 1269.77 6.0764C1267.27 6.15603 1267.03 6.66425 1265.07 6.65131C1258.55 6.60878 1256.27 5.90372 1250.13 6.52795C1248.81 6.66116 1250.12 7.21396 1245.4 6.78552C1245.11 6.75849 1241.6 6.36531 1239.58 6.62162C1239.32 6.65394 1239.33 6.8157 1239 6.82991C1236.75 6.92197 1235.25 6.79592 1232.8 6.86243C1230.36 6.92895 1227.41 7.02692 1224.62 6.97794C1222.93 6.94866 1220.77 6.65192 1219.96 6.5799C1217.69 6.37229 1215.25 6.72634 1213.84 6.47216C1212.41 6.21672 1215.19 5.81738 1211.46 5.65886C1211.33 6.07949 1211.01 6.51163 1210.79 6.93485C1202.62 6.9392 1194.57 6.82377 1186.37 6.86475C1185.36 6.87025 1186.4 7.09336 1185.31 7.1051C1180.71 7.15365 1176.69 7.004 1171.92 7.08219C1168.23 7.14357 1164.18 7.39506 1160.32 7.46734C1157.97 6.99368 1152.24 7.17507 1148.08 7.14476C1146.62 7.13434 1146.72 7.00558 1145.68 6.96709C1141.77 6.82504 1143.6 7.244 1142.53 7.31445C1137.93 7.61533 1137.54 6.65464 1132.11 6.69713C1131.83 6.69904 1128.32 7.22407 1127.83 7.25772C1124.76 7.47677 1127.32 7.08102 1125.4 7.04993C1121.89 6.99315 1119.45 6.87944 1115.33 7.04467C1114.13 7.09354 1111.25 7.42374 1108.91 7.18521C1108.61 7.15398 1108.77 6.98385 1108.53 6.97485C1104.06 6.82608 1103.94 7.35915 1101.39 7.54919C1098.83 7.73921 1094.88 7.38676 1094.08 7.28391C1091.98 7.01793 1095.69 7.16055 1095.8 7.13322C1097.14 6.80797 1094.26 6.87414 1092.06 6.85564C1091.74 6.33468 1088.66 6.37803 1089.78 6.83858C1089.91 6.88887 1091.62 6.8335 1092.06 6.85564C1090.13 7.37548 1086.75 7.45429 1083.01 6.99033C1081.27 6.77289 1082.92 6.50461 1077.61 6.62157C1075.2 6.67445 1076.13 7.03026 1074 7.13687C1069.15 7.38014 1062.83 7.07064 1057.82 7.14435C1056.01 7.17111 1057.78 7.36055 1056.54 7.38562C1053.24 7.45279 1050.33 7.31734 1047.02 7.40701C1046.72 7.41538 1047.45 7.6183 1046.42 7.62529C1038.62 7.68232 1031.82 7.57964 1023.67 7.61154C1019.73 7.62704 1012.69 7.77165 1008.61 7.7669C1001.54 7.75983 992.846 7.49917 986.806 7.59915C982.867 7.66348 983.733 7.86566 982.045 8.01368C978.789 8.30053 973.022 7.83913 972.245 7.76716C972.221 7.76477 975.611 7.70084 973.802 7.60325C972.749 7.3876 972.283 7.76603 972.245 7.76716C971.735 7.7207 964.964 7.70463 963.619 7.75014C962.888 7.77499 963.298 7.96837 962.917 7.97763C953.864 8.19349 944.793 8.28444 935.609 8.2349C935.448 8.23169 935.69 8.01219 935.31 8.00737C929.993 7.93444 926.59 8.21705 922.206 8.39553C917.823 8.57393 914.345 8.53653 911.748 8.17333C908.441 8.23546 903.694 8.09105 900.963 8.00271C898.231 7.91438 897.852 8.34118 897.612 8.35066C890.118 8.65313 885.785 8.42906 878.009 8.42541C874.312 8.42296 866.979 8.51663 862.977 8.58039C859.814 8.63151 857.908 8.54008 854.993 8.61626C854.599 8.62645 854.998 8.81403 854.878 8.82183C851.626 9.06219 853.187 8.59278 852.515 8.51301C850.079 8.22285 848.574 8.06921 844.409 8.22815C843.448 8.26458 840.652 8.9426 838.9 8.98887C836.623 9.0478 837.482 8.80541 835.098 8.87316C834.894 8.87874 834.937 9.0259 833.465 9.0255C826.634 9.02555 819.185 8.97007 812.087 9.01299C811.117 9.01829 812.361 9.24705 810.96 9.25855C804.386 9.31228 797.18 9.3315 790.775 9.24624C789.198 9.22451 790.186 9.05717 789.844 9.00987C787.742 8.72382 784.764 9.16201 784.272 9.17196C772.546 9.42052 763.571 9.06575 751.618 9.2897C750.968 9.3027 745.961 9.77709 743.726 9.39157C743.573 9.36594 741.361 8.9713 739.407 9.25219C739.286 9.26976 740.664 9.47224 738.26 9.45876C735.856 9.44533 731.988 9.59548 728.683 9.37821C727.637 9.30978 725.163 8.91647 722.043 9.24509C721.84 9.26802 717.025 10.0044 715.304 9.5108C715.025 9.42953 715.315 8.90137 711.592 9.18217C710.88 9.23657 712.173 9.35064 710.298 9.42928C707.426 9.55043 703.62 9.41943 700.09 9.66355C699.474 9.70676 696.854 10.0715 694.75 9.80509C694.421 9.76336 695.046 9.58571 693.936 9.56879C688.655 9.48748 683.127 9.61839 677.765 9.50853C675.866 9.46994 676.836 9.18315 674.857 9.1112C672.877 9.0393 668.888 8.97438 666.817 9.10865C664.746 9.24299 667.01 9.69212 663.906 9.73464C650.412 9.91913 637.044 9.67469 623.57 9.65203C621.572 9.64859 623.229 9.80901 620.284 9.81549C609.425 9.8407 590.679 10.0059 581.257 9.6627C573.709 9.38822 583.208 9.17572 577.44 9.06452C574.656 9.01142 571.645 9.53902 570.973 9.55563C564.408 9.72462 559.845 9.48778 553.937 9.55202C552.717 9.56529 553.913 9.78067 552.875 9.78955C549.327 9.82174 545.599 9.71951 542.209 9.72943C540.688 9.73434 540.968 9.89825 539.569 9.88231C536.221 9.84592 533.26 9.76902 529.996 9.6058C529.699 9.59092 531.706 9.39412 529.228 9.37877C525.219 9.35442 520.243 9.18544 515.63 9.32215C514.261 9.36331 514.206 9.73644 511.265 9.46576C510.648 9.40914 511.438 8.96486 508.009 9.33619C507.432 9.39803 501.673 9.89244 498.85 9.54071C498.105 9.44821 496.205 9.07141 494.559 9.11992C494.336 9.12788 495.229 9.33328 493.865 9.34526C489.058 9.38392 484.021 9.33223 479.083 9.36311C477.765 9.37173 479.727 9.5919 477.762 9.59806C472.357 9.61532 465.611 9.51502 460.327 9.41038C458.379 9.37142 459.727 9.20972 459.585 9.18996C457.308 8.86867 455.957 9.26869 455.2 9.28677C450.493 9.39354 446.912 9.17167 442.574 9.18645C441.376 9.18998 442.224 9.39282 441.985 9.40827C439.513 9.55798 441.356 9.22202 439.792 9.17001C435.411 9.02309 430.526 8.99578 426.095 8.98041C424.467 8.97504 426.294 9.21869 424.834 9.21122C416.187 9.1712 407.2 9.0622 398.764 8.85147C397.175 8.81136 398.177 8.64676 397.846 8.60348C395.567 8.30106 392.218 8.6474 391.448 8.67566C387.947 8.80494 386.59 8.63607 383.499 8.63212C368.402 8.61581 349.764 8.30208 335.517 8.07185C316.95 7.77304 302.544 7.43229 284.838 7.26169C283.713 7.25062 284.845 7.4968 283.875 7.49024C271.35 7.39501 259.021 7.15529 246.471 7.07359C245.442 7.06648 246.923 7.30446 245.27 7.30046C241.88 7.29381 237.585 7.23124 234.158 7.12079C232.487 7.06734 234.732 6.90444 233.049 6.85451C229.131 6.73784 224.931 6.67347 220.906 6.66264C219.193 6.65852 221.775 6.91352 219.548 6.89063C204.383 6.73947 189.488 6.6143 174.166 6.16522C173.116 6.13441 172.199 5.66684 169.964 5.73208C169.795 5.85751 169.802 6.00716 169.727 6.1423C147.65 5.9925 125.801 5.63752 103.662 5.45373C102.729 5.44605 104.34 5.70032 102.533 5.68674C92.0741 5.60869 81.9178 5.61194 71.2204 5.31408C70.159 5.28494 70.7059 4.86054 67.5774 4.90921C67.0257 4.91807 62.314 4.95206 61.0955 5.03931C60.93 5.05253 61.7886 5.25579 60.2704 5.25463C51.4475 5.24452 42.2029 5.16512 33.3959 5.01996C31.9747 4.99617 33.4888 4.78789 32.4765 4.76913C25.2955 4.63768 17.4834 4.78547 10.6216 4.58683C6.02839 4.45337 7.72924 4.08791 5.28837 3.72544C4.94313 3.67426 2.09847 3.66535 1.95138 3.45526C1.57377 2.92679 2.95188 2.34846 2.38656 1.78512C2.26713 1.66368 -1.54335 1.79417 0.712709 1.50109C0.870322 1.48142 3.63296 1.38461 4.31343 1.28548C4.7872 1.2169 3.93356 1.00286 4.90021 0.915228C5.86677 0.827698 6.92876 1.00734 8.53127 0.905061C10.1331 0.801607 9.42899 0.557672 12.6279 0.532076ZM888.664 7.60806C886.134 7.41513 885.764 8.16451 888.499 7.97348C888.631 7.96336 888.794 7.61749 888.664 7.60806ZM1194.62 6.26016C1191.31 5.93897 1189.05 6.43003 1191.38 6.67852C1193.72 6.92676 1195.62 6.35752 1194.62 6.26016ZM1228.9 5.93974C1225.03 5.6876 1224.43 6.74919 1228.57 6.52635C1228.81 6.51375 1229.12 5.95438 1228.9 5.93974ZM16.6086 3.63288C16.5737 3.62287 14.529 3.61057 14.4801 3.62039C13.3911 3.8565 17.4796 3.88089 16.6086 3.63288ZM1262.92 5.61939C1261.71 5.47759 1258.24 5.64819 1259.74 5.82438C1260.94 5.96609 1264.42 5.79573 1262.92 5.61939ZM756.749 7.33885C756.709 7.32785 755.243 7.32278 755.273 7.38566C755.373 7.58819 757.413 7.52402 756.749 7.33885ZM1320.73 5.56296C1312.19 5.52422 1307.01 4.6505 1316.31 4.74673C1318 4.76423 1312.68 5.02692 1314.83 5.10536C1318.75 5.24827 1321.36 4.69798 1325.36 4.99263C1326.08 5.04652 1321.22 5.56706 1320.72 5.56418C1320.72 5.56377 1320.73 5.56337 1320.73 5.56296ZM887.204 6.7164C887.153 6.70674 885.124 6.70635 885.075 6.71637C883.977 6.95862 888.066 6.95953 887.204 6.7164ZM671.202 7.11559C671.09 7.09479 666.38 7.08486 666.227 7.10455C663.771 7.49781 673.292 7.51907 671.202 7.11559ZM1023.88 5.55435C1026.09 5.30587 1028.74 5.26624 1030.51 5.55848C1028.31 5.55209 1026.09 5.55938 1023.88 5.55435Z" fill="#F9F2E0"/>
<path d="M24.6277 0.539933C32.0563 0.490701 41.7946 0.603631 49.1939 0.747743C51.5131 0.792483 50.3378 0.917299 51.9386 0.954579C55.0693 1.02762 57.9868 0.984793 61.0804 1.07179C62.1056 1.10131 60.8275 1.30056 61.9025 1.32677C67.7931 1.4692 73.3677 1.46996 79.3351 1.57998C108.729 2.12348 137.619 2.69763 167.365 3.41438C177.173 3.65018 189.091 4.10526 199.223 4.25797C200.406 4.27558 199.706 4.07498 199.931 4.06503C203.465 3.91499 202.283 4.25948 204.586 4.3631C213.727 4.77364 223.895 5.03915 232.697 5.18832C236.442 5.25132 232.697 4.7913 236.462 5.09136C236.723 5.11183 235.768 5.28352 236.794 5.33022C239.122 5.43568 243.54 5.51275 245.344 5.57431C248.821 5.69387 249.397 5.70667 252.686 5.79342C257.183 5.91377 262.529 6.14959 267.355 6.23105C268.385 6.24786 267.027 6.01179 268.67 6.02051C270.315 6.0293 274.663 6.16005 276.128 6.24577C277.593 6.3315 276.965 6.47273 277.223 6.51566C279.35 6.8765 284.392 6.58643 285.039 6.59302C296.844 6.7255 306.958 7.23356 318.035 7.5231C326.444 7.74242 335.437 7.89685 343.438 8.11281C352.971 8.37082 361.047 8.68324 370.309 8.89241C371.286 8.91468 370.146 8.6508 371.34 8.6775C384.023 8.96123 396.616 9.28431 409.241 9.72421C410.507 9.7685 408.87 9.93928 410.135 9.99588C417.877 10.339 430.127 11.0046 434.747 10.1948C439.993 10.336 446.363 10.4956 451.054 10.7644C454.079 10.9374 451.135 11.1088 454.855 11.0807C455.694 11.0745 454.607 10.8572 455.865 10.8628C461.162 10.8865 466.945 11.0505 472.186 11.0339C473.251 11.0301 472.963 10.8483 473.266 10.8214C475.807 10.6047 480.024 11.0971 480.944 11.1421C487.952 11.4802 493.074 11.4614 499.606 11.5522C501.122 11.5732 499.333 11.3123 500.792 11.3239C508.357 11.3869 516.192 11.4956 523.599 11.6722C525.246 11.712 523.729 11.9 524.516 11.9294C527.987 12.0558 528.76 11.6802 532.089 11.7909C532.791 11.8137 532.394 11.9838 532.522 12.0039C534.523 12.3194 536.268 11.9092 536.783 11.9038C543.304 11.825 547.469 12.2932 553.768 12.262C554.522 12.2577 552.824 12.0302 554.942 12.0314C569.054 12.0408 583.98 12.099 597.951 12.2628C600.123 12.2879 598.573 12.454 598.709 12.4742C600.937 12.7897 602.379 12.3628 603.087 12.346C608.674 12.2246 613.894 12.573 617.689 12.0595C641.353 12.1924 664.907 11.8253 688.376 12.1658C688.675 12.1697 688.141 12.3817 688.736 12.3884C695.905 12.4709 694.527 12.152 699.268 11.7293C700.462 11.6231 704.099 12.0844 704.42 12.1178C705.593 12.2413 704.379 12.5595 704.772 12.5825C708.019 12.7623 707.485 11.7348 711.864 11.7097C712.001 11.7107 711.427 11.9036 711.794 11.9204C712.937 11.9731 714.069 11.8913 715.187 11.9501C717.745 12.0863 718.659 12.5818 722.564 12.2669C723.058 12.2261 722.299 11.6462 726.21 11.6499C727.768 11.652 734.668 11.5984 736.602 11.6236C738.534 11.6489 737.209 11.8459 737.347 11.8531C742.553 12.0682 740.58 12.1843 743.19 12.5357C745.8 12.8857 745.071 12.0142 746.133 11.9092C747.197 11.8045 751.014 11.9839 751.952 12.0488C752.89 12.1137 751.722 12.2416 752.555 12.2762C758.083 12.5019 754.978 11.8243 756.797 11.6724C761.087 11.3127 764.435 11.9382 768.365 11.9729C769.429 11.9822 768.56 11.8406 769.507 11.8198C773.256 11.739 775.513 11.9248 779.778 11.7061C780.475 11.6705 783.921 11.2531 786.156 11.5223C786.472 11.5611 785.575 11.7301 787.174 11.7539C789.561 11.7895 793.863 11.7906 796.429 11.7157C798.323 11.6603 796.15 11.4111 798.535 11.4746C799.595 11.503 797.632 11.6751 799.624 11.7154C801.605 11.7558 806.669 11.7071 808.596 11.6856C810.52 11.664 809.465 11.4704 809.621 11.4555C810.561 11.3695 814.252 11.2408 814.578 11.2382C831.033 11.074 846.21 11.2791 862.231 11.0177C863.488 10.9975 862.648 10.7918 862.84 10.7865C867.144 10.6571 863.755 11.2561 866.764 11.4181C866.325 10.989 868.101 11.0509 871.132 10.9749C872.593 10.938 871.796 10.7777 871.929 10.7593C874.093 10.4842 875.605 10.799 875.994 10.8626C877.432 11.0967 878.99 10.7893 879.969 10.9455C880.946 11.1005 878.702 11.3654 881.61 11.3346C882.424 11.1718 880.261 10.7872 882.469 10.7005C890.796 10.3731 906.348 10.5404 913.045 10.5077C919.73 10.4753 921.888 10.4254 925.784 10.4431C932.82 10.4751 930.239 10.1999 934.606 10.0192C938.986 9.83828 936.864 10.599 937.495 10.7518C938.115 10.9046 938.788 10.7343 939.558 10.814C940.325 10.8938 938.667 11.0183 940.47 11.0333C942.274 11.0482 947.203 10.7166 947.841 10.544C949.189 10.1783 946.963 9.83072 951.737 9.91326C952.012 9.91825 951.123 10.1216 952.174 10.1308C960.524 10.1977 969.197 10.1208 977.536 10.1707C978.683 10.1779 977.66 10.4044 978.327 10.411C985.279 10.4806 982.791 10.1404 986.596 9.69749C985.746 10.2453 987.855 10.5544 993.13 10.5056C996.301 10.4765 995.752 10.2463 997.802 10.0602C998.416 10.0041 1000.66 10.1438 1001.07 10.0291C1002.4 9.65382 1000.29 9.26912 1005.73 9.37733C1005.97 9.38267 1005.21 9.58831 1006.03 9.59225C1011.36 9.61879 1012 9.23381 1017.76 9.13209C1022.27 9.05232 1030.3 9.20604 1035.44 9.19472C1035.34 9.80207 1040.2 9.61708 1042.16 9.18044C1045.5 9.16604 1049.1 9.10858 1052.33 9.13631C1053.44 9.14567 1052.71 9.32802 1052.85 9.34569C1055 9.62326 1056.45 9.2031 1057.17 9.18048C1064.97 8.95327 1071.33 9.20365 1078.78 8.83581C1079.04 8.82261 1079.47 8.39757 1081.46 8.6874C1081.59 8.70746 1079.13 8.92093 1082.64 8.90464C1086.14 8.88836 1092.75 9.05625 1097.62 8.81934C1098.79 8.76222 1101.77 8.39482 1104.16 8.64175C1104.48 8.67533 1104.13 8.79908 1104.59 8.86241C1106.08 9.06405 1106.89 8.63149 1108.64 8.97853C1110.39 9.32557 1114.02 9.56605 1118.93 9.27652C1119.08 9.26799 1120.24 8.92109 1121.78 8.91395C1124.25 8.90281 1127.75 8.94515 1130.32 8.92269C1131.55 8.9118 1130.76 8.70849 1130.97 8.70298C1139.25 8.52053 1145.15 8.66236 1154.02 8.67861C1155.65 8.68199 1160.32 8.3626 1163.47 8.56645C1166.93 8.78963 1163.38 9.84251 1171.32 9.54305C1174.53 9.42328 1178.58 8.09096 1184.34 8.73019C1195.51 8.49125 1205.84 8.77643 1217.04 8.47769C1217.54 8.46442 1219.13 8.0918 1220.32 8.09062C1222.08 8.08958 1223.04 8.25492 1224.3 8.2598C1229.56 8.28459 1234.37 8.11608 1239.44 8.11607C1241.37 8.11575 1240.69 8.29471 1242.99 8.29456C1245.29 8.29434 1246.82 8.05604 1249.93 8.15535C1252.28 8.23118 1254.63 8.69569 1257.74 8.73927C1257.86 8.27154 1260 8.27298 1263.81 8.13637C1264.54 8.1099 1263.75 7.94997 1264.1 7.92906C1265.51 7.84035 1266.81 7.97076 1268.15 7.87511C1268.47 7.85212 1268.49 7.69248 1268.75 7.66469C1271.02 7.4222 1274.74 7.76982 1275.38 7.83047C1277.84 8.06059 1278.98 7.84981 1280.86 7.93813C1282.74 8.0265 1279.93 8.15093 1282.13 8.20174C1286.67 8.3068 1292.52 8.26735 1297.13 8.26561C1298.98 8.26393 1297.72 8.05337 1297.98 8.04818C1301.79 7.9867 1305.65 8.20711 1307.76 7.77967C1310.4 8.87312 1310.06 7.66951 1315.5 7.88291C1315.93 7.90022 1316.48 8.41845 1314.83 8.49645C1313.18 8.5744 1310.69 8.41534 1308.4 8.5374C1307.86 8.56599 1304.76 9.05699 1304.34 9.08719C1301.03 9.32288 1300.56 8.54861 1300.38 8.5063C1298.39 8.05028 1294.6 8.58179 1293.61 8.62019C1289.04 8.79587 1285.17 8.69647 1281.35 8.82517C1278.85 8.90849 1278.61 9.41711 1276.65 9.40724C1270.13 9.37518 1267.86 8.67419 1261.72 9.3101C1260.4 9.4459 1261.71 9.99597 1256.99 9.57704C1256.7 9.5506 1253.19 9.16465 1251.17 9.42538C1250.92 9.45824 1250.92 9.61998 1250.59 9.63492C1248.34 9.73189 1246.84 9.6092 1244.4 9.68135C1241.95 9.75352 1239.01 9.85852 1236.21 9.81649C1234.53 9.79139 1232.37 9.50017 1231.56 9.43024C1229.29 9.22849 1226.85 9.58905 1225.44 9.33869C1224.01 9.08712 1226.79 8.68018 1223.06 8.53187C1222.92 8.95288 1222.61 9.38589 1222.39 9.80972C1214.22 9.83668 1206.18 9.74543 1197.98 9.81286C1196.96 9.82165 1198 10.0414 1196.91 10.0567C1192.32 10.1202 1188.3 9.98401 1183.53 10.0788C1179.84 10.153 1175.8 10.4189 1171.94 10.5054C1169.58 10.0403 1163.86 10.2431 1159.7 10.2289C1158.24 10.2241 1158.34 10.095 1157.3 10.0605C1153.39 9.93376 1155.22 10.3456 1154.15 10.4202C1149.56 10.7393 1149.16 9.78016 1143.74 9.84475C1143.45 9.84782 1139.94 10.3873 1139.46 10.423C1136.39 10.6548 1138.95 10.2484 1137.03 10.2253C1133.51 10.1832 1131.07 10.0799 1126.96 10.2628C1125.76 10.3169 1122.88 10.6596 1120.54 10.4313C1120.24 10.4014 1120.4 10.2306 1120.16 10.2226C1115.69 10.0936 1115.57 10.6272 1113.02 10.8287C1110.47 11.0301 1106.52 10.6956 1105.71 10.5965C1103.61 10.3401 1107.32 10.4658 1107.44 10.4379C1108.77 10.1066 1105.89 10.1858 1103.69 10.1774C1103.37 9.65794 1100.3 9.71546 1101.41 10.1709C1101.54 10.2206 1103.25 10.1573 1103.69 10.1774C1101.77 10.7061 1098.39 10.8005 1094.65 10.354C1092.9 10.1448 1094.55 9.86869 1089.24 10.0107C1086.84 10.075 1087.77 10.4264 1085.64 10.5432C1080.79 10.8096 1074.48 10.5307 1069.47 10.629C1067.65 10.6647 1069.42 10.8454 1068.18 10.8766C1064.89 10.96 1061.98 10.839 1058.67 10.9452C1058.37 10.9551 1059.1 11.1543 1058.07 11.1665C1050.27 11.2626 1043.48 11.1945 1035.33 11.2684C1031.39 11.3041 1024.35 11.4853 1020.28 11.5019C1013.21 11.5318 1004.51 11.3171 998.473 11.4492C994.535 11.5345 995.401 11.7321 993.715 11.8891C990.461 12.1933 984.693 11.7627 983.916 11.6949C983.892 11.6926 987.281 11.6106 985.471 11.5226C984.418 11.3126 983.954 11.6935 983.916 11.6949C983.406 11.6511 976.636 11.6713 975.292 11.7241C974.562 11.7528 974.972 11.944 974.592 11.9553C965.542 12.2197 956.474 12.3594 947.293 12.3592C947.131 12.3568 947.372 12.1361 946.992 12.1333C941.676 12.0889 938.276 12.3897 933.893 12.5916C929.512 12.7935 926.036 12.7746 923.438 12.4253C920.131 12.505 915.385 12.3858 912.654 12.3119C909.923 12.238 909.546 12.6668 909.306 12.6775C901.815 13.0195 897.482 12.8182 889.708 12.855C886.012 12.8717 878.682 13.0032 874.681 13.0873C871.519 13.1546 869.613 13.0728 866.699 13.1637C866.305 13.1759 866.705 13.3615 866.585 13.3699C863.335 13.6266 864.894 13.1494 864.221 13.073C861.784 12.7951 860.279 12.649 856.115 12.8287C855.155 12.8699 852.363 13.5618 850.612 13.6167C848.336 13.6868 849.193 13.4402 846.81 13.5196C846.606 13.5262 846.65 13.6732 845.178 13.6799C838.349 13.7134 830.902 13.6936 823.805 13.7698C822.836 13.7796 824.081 14.0025 822.68 14.0206C816.108 14.105 808.904 14.1572 802.5 14.1004C800.923 14.0857 801.91 13.9139 801.568 13.8682C799.465 13.5914 796.49 14.0427 795.998 14.0548C784.276 14.3545 775.301 14.0372 763.352 14.3083C762.702 14.3238 757.698 14.8177 755.462 14.4407C755.309 14.4156 753.096 14.0294 751.144 14.3176C751.023 14.3356 752.401 14.533 749.998 14.5285C747.595 14.524 743.728 14.6883 740.422 14.4829C739.376 14.4182 736.902 14.0337 733.784 14.3731C733.581 14.3968 728.769 15.1496 727.047 14.6617C726.768 14.5814 727.056 14.0524 723.335 14.3454C722.624 14.4021 723.916 14.512 722.042 14.5967C719.171 14.7273 715.365 14.6084 711.836 14.8633C711.221 14.9084 708.602 15.2812 706.499 15.021C706.169 14.9802 706.794 14.8007 705.684 14.7871C700.404 14.7214 694.877 14.8678 689.516 14.772C687.617 14.7384 688.587 14.4491 686.607 14.3823C684.628 14.3155 680.64 14.2605 678.57 14.3998C676.499 14.5391 678.764 14.9828 675.661 15.0327C662.17 15.2488 648.805 15.03 635.333 15.0265C633.335 15.0259 634.991 15.184 632.047 15.1945C621.191 15.2352 602.448 15.4156 593.028 15.0746C585.481 14.8022 594.979 14.5872 589.211 14.4774C586.429 14.4249 583.418 14.9527 582.746 14.9693C576.183 15.1387 571.62 14.898 565.712 14.9534C564.492 14.9648 565.688 15.1821 564.65 15.1893C561.103 15.2157 557.375 15.1054 553.985 15.1064C552.464 15.1072 552.744 15.2719 551.345 15.252C547.997 15.206 545.036 15.1193 541.773 14.944C541.475 14.9281 543.483 14.7387 541.006 14.7141C536.997 14.6748 532.022 14.4845 527.409 14.5985C526.04 14.6329 525.983 15.006 523.043 14.7199C522.427 14.66 523.219 14.2202 519.788 14.5729C519.212 14.6317 513.45 15.0933 510.629 14.7237C509.885 14.6266 507.987 14.2378 506.341 14.2755C506.118 14.282 507.01 14.4933 505.646 14.4963C500.839 14.5034 495.804 14.4158 490.866 14.409C489.548 14.4076 491.508 14.6428 489.543 14.6338C484.139 14.6096 477.394 14.4531 472.112 14.3016C470.164 14.2453 471.514 14.0956 471.372 14.0746C469.098 13.7331 467.744 14.1207 466.987 14.1318C462.28 14.1954 458.701 13.9392 454.364 13.9112C453.167 13.9029 454.012 14.1141 453.773 14.1272C451.299 14.2523 453.146 13.9347 451.583 13.8671C447.204 13.6762 442.321 13.5981 437.89 13.535C436.263 13.5121 438.087 13.7754 436.627 13.7522C427.983 13.6187 418.998 13.4067 410.567 13.0949C408.979 13.0357 409.982 12.8831 409.652 12.8359C407.377 12.5062 404.025 12.8116 403.255 12.8304C399.753 12.9167 398.398 12.7309 395.309 12.6883C380.216 12.4832 361.587 11.9199 347.347 11.4926C328.79 10.9373 314.394 10.3906 296.697 9.96776C295.572 9.94065 296.7 10.2029 295.73 10.1826C283.211 9.9088 270.891 9.49343 258.347 9.2361C257.317 9.21458 258.795 9.47326 257.143 9.44615C253.754 9.39208 249.462 9.26982 246.038 9.11211C244.368 9.0356 246.614 8.90368 244.933 8.83055C241.018 8.65989 236.82 8.53809 232.797 8.47278C231.085 8.44549 233.662 8.73538 231.437 8.68239C216.279 8.3265 201.393 8.00783 186.082 7.37331C185.033 7.32981 184.122 6.85116 181.887 6.88971C181.716 7.01311 181.722 7.16283 181.645 7.29708C159.579 6.88411 137.742 6.29768 115.615 5.92596C114.682 5.91038 116.29 6.17826 114.484 6.14943C104.03 5.98349 93.8787 5.91123 83.1879 5.54659C82.1272 5.5109 82.6764 5.08962 79.5489 5.11952C78.9973 5.12491 74.2874 5.13181 73.0688 5.21261C72.9033 5.22494 73.7605 5.43284 72.243 5.42346C63.424 5.36569 54.1838 5.24628 45.3812 5.07355C43.9605 5.04533 45.4748 4.84175 44.4629 4.81986C37.2852 4.66625 29.476 4.79801 22.6173 4.5924C18.026 4.45458 19.7265 4.09083 17.2866 3.72683C16.9415 3.67538 14.0978 3.66549 13.9508 3.45545C13.5734 2.9269 14.9513 2.34887 14.3862 1.78541C14.2669 1.66381 10.4568 1.7941 12.7126 1.50112C12.8702 1.48138 15.6326 1.38515 16.3131 1.28641C16.7868 1.21804 15.9333 1.00361 16.9 0.916422C17.8666 0.829372 18.9284 1.00961 20.5309 0.908664C22.1327 0.806673 21.4289 0.56177 24.6277 0.539933ZM900.356 11.982C897.826 11.8023 897.46 12.5537 900.193 12.3483C900.325 12.3375 900.486 11.9908 900.356 11.982ZM1206.22 9.18229C1202.91 8.87129 1200.66 9.36957 1202.99 9.61069C1205.32 9.85162 1207.23 9.27656 1206.22 9.18229ZM1240.49 8.76785C1236.63 8.52503 1236.02 9.58813 1240.16 9.35525C1240.4 9.34207 1240.72 8.78195 1240.49 8.76785ZM28.6034 3.6464C28.5685 3.6363 26.5245 3.6209 26.4756 3.63069C25.3866 3.86519 29.4737 3.89572 28.6034 3.6464ZM1274.5 8.37877C1273.29 8.23891 1269.82 8.41545 1271.32 8.58907C1272.53 8.72869 1276 8.55267 1274.5 8.37877ZM768.474 12.3371C768.434 12.3262 766.969 12.327 766.999 12.3898C767.1 12.5919 769.139 12.5196 768.474 12.3371ZM1332.3 8.27013C1323.76 8.23278 1318.58 7.3616 1327.88 7.45477C1329.57 7.47181 1324.25 7.736 1326.4 7.81381C1330.32 7.95559 1332.92 7.40489 1336.93 7.69949C1337.65 7.75334 1332.79 8.2741 1332.29 8.27136C1332.29 8.27095 1332.3 8.27054 1332.3 8.27013ZM898.892 11.098C898.841 11.0886 896.812 11.0989 896.763 11.1091C895.667 11.3571 899.754 11.3366 898.892 11.098ZM682.948 12.396C682.836 12.3755 678.128 12.3771 677.974 12.3971C675.52 12.7963 685.039 12.7943 682.948 12.396ZM1035.53 9.21012C1037.74 8.95024 1040.39 8.89703 1042.15 9.18023C1039.95 9.1851 1037.74 9.20375 1035.53 9.21012Z" fill="#7F5E3A"/>
</svg>
